<?xml version="1.0" encoding="UTF-8" standalone="no"?>
<svg
   xmlns:dc="http://purl.org/dc/elements/1.1/"
   xmlns:cc="http://creativecommons.org/ns#"
   xmlns:rdf="http://www.w3.org/1999/02/22-rdf-syntax-ns#"
   xmlns:svg="http://www.w3.org/2000/svg"
   xmlns="http://www.w3.org/2000/svg"
   xmlns:sodipodi="http://sodipodi.sourceforge.net/DTD/sodipodi-0.dtd"
   xmlns:inkscape="http://www.inkscape.org/namespaces/inkscape"
   inkscape:version="0.92.4 (5da689c313, 2019-01-14)"
   sodipodi:docname="ArchUnitNET-Logo-netcolor2.svg"
   id="svg784"
   style="fill-rule:evenodd;clip-rule:evenodd;stroke-linejoin:round;stroke-miterlimit:2;"
   xml:space="preserve"
   version="1.1"
   viewBox="0 0 804 100"
   height="100%"
   width="100%"><metadata
     id="metadata790"><rdf:RDF><cc:Work
         rdf:about=""><dc:format>image/svg+xml</dc:format><dc:type
           rdf:resource="http://purl.org/dc/dcmitype/StillImage" /><dc:title></dc:title></cc:Work></rdf:RDF></metadata><defs
     id="defs788" /><sodipodi:namedview
     inkscape:current-layer="svg784"
     inkscape:window-maximized="1"
     inkscape:window-y="-8"
     inkscape:window-x="-8"
     inkscape:cy="88.273235"
     inkscape:cx="672.3255"
     inkscape:zoom="4"
     showgrid="false"
     id="namedview786"
     inkscape:window-height="1017"
     inkscape:window-width="1920"
     inkscape:pageshadow="2"
     inkscape:pageopacity="0"
     guidetolerance="10"
     gridtolerance="10"
     objecttolerance="10"
     borderopacity="1"
     bordercolor="#666666"
     pagecolor="#ffffff" /><g
     id="g767"><g
       id="g743"><clipPath
         id="_clip1"><path
           id="path732"
           d="M-0.05,97.988c0,-34.921 19.081,-67.185 49.682,-84.009c30.602,-16.823 68.069,-15.645 97.554,3.067l-51.367,80.945l-95.869,-0.003Z" /></clipPath><g
         id="g741"
         clip-path="url(#_clip1)"><circle
           id="circle735"
           style="fill:#a6cee9;fill-opacity:0.98;"
           r="95.869"
           cy="97.988"
           cx="95.701" /><circle
           id="circle737"
           style="fill:#65a2d0;"
           r="63.91"
           cy="97.988"
           cx="95.701" /><circle
           id="circle739"
           style="fill:#0563a5;"
           r="31.955"
           cy="97.988"
           cx="95.701" /></g></g><g
       id="g765"><g
         id="g753"><path
           id="path745"
           style="fill:#0563a5;fill-rule:nonzero;"
           d="M198.432,97.835l-15.233,-80.487l-18.417,0l-51.269,80.487l21.599,0l9.663,-16.029l31.035,0l2.729,16.029l19.893,0Zm-24.555,-31.261l-21.031,0l16.825,-28.534l4.206,28.534Z" /><path
           id="path747"
           style="fill:#0563a5;fill-rule:nonzero;"
           d="M230.711,49.522c0.341,-2.16 0.91,-6.821 1.023,-8.299l-17.279,0c-0.341,3.638 -1.137,8.867 -1.705,11.709l-8.072,44.904l18.189,0l5.116,-29.102c0.795,-4.661 4.433,-12.959 15.006,-12.959c1.364,0 2.955,0.115 4.547,0.568l2.955,-16.142c-0.909,-0.227 -2.501,-0.455 -3.865,-0.455c-7.048,0 -12.05,4.092 -15.688,9.776l-0.227,0Z" /><path
           id="path749"
           style="fill:#0563a5;fill-rule:nonzero;"
           d="M303.483,48.284c-4.206,-5.911 -12.391,-8.753 -20.917,-8.753c-20.917,0 -34.786,16.597 -34.786,35.015c0,15.005 11.027,24.896 27.511,24.896c9.663,0 16.938,-3.411 22.85,-8.64l-8.64,-11.595c-2.728,2.842 -6.366,5.115 -11.823,5.115c-8.526,0 -12.277,-5.797 -12.277,-12.163c0,-9.55 6.934,-17.848 16.711,-17.848c4.433,0 8.298,2.387 9.89,4.888l11.481,-10.915Z" /><path
           id="path751"
           style="fill:#0563a5;fill-rule:nonzero;"
           d="M358.983,97.835l6.139,-34.785c0.456,-1.933 0.567,-4.093 0.567,-6.139c0,-9.208 -5.456,-17.166 -18.075,-17.166c-7.616,0 -13.642,4.206 -16.825,8.867l-0.226,0l6.48,-36.718l-18.303,0l-15.12,85.943l18.189,0l5.457,-30.467c1.137,-6.935 5.343,-12.619 11.936,-12.619c5.57,0 7.503,3.411 7.503,7.617c0,1.364 -0.226,3.183 -0.568,4.774l-5.343,30.694l18.189,-0.001Z" /></g><g
         id="g763"><path
           id="path755"
           style="fill:#65a2d0;fill-rule:nonzero;"
           d="M411.826,100.009c22.31,0 32.81,-16.106 32.81,-33.405l0,-53.211l-11.811,0l0,52.495c0,11.573 -5.25,23.504 -20.998,23.504c-15.749,0 -20.998,-11.931 -20.998,-23.504l0,-52.495l-11.811,0l0,53.211c0,17.299 10.499,33.405 32.81,33.405l-0.002,0Z" /><path
           id="path757"
           style="fill:#65a2d0;fill-rule:nonzero;"
           d="M458.327,41.309c0.356,3.698 0.477,9.187 0.477,12.169l0,44.382l11.215,0l0,-30.066c0,-11.214 6.323,-18.611 15.152,-18.611c10.38,0 12.885,8.113 12.885,17.299l0,31.376l11.215,0l0,-35.075c0,-12.647 -6.562,-23.026 -21.117,-23.026c-8.113,0 -15.63,4.772 -18.374,10.857l-0.356,0c0,-2.386 -0.242,-6.443 -0.477,-9.306l-10.62,0.001Z" /><path
           id="path759"
           style="fill:#65a2d0;fill-rule:nonzero;"
           d="M534.42,41.309l-11.215,0l0,56.55l11.215,0l0,-56.55Zm1.909,-20.402c0,-4.176 -3.46,-7.278 -7.517,-7.278c-4.056,0 -7.397,3.222 -7.397,7.278c0,3.937 3.341,7.159 7.397,7.159c4.057,0 7.517,-3.102 7.517,-7.159Z" /><path
           id="path761"
           style="fill:#65a2d0;fill-rule:nonzero;"
           d="M576.393,41.309l-15.033,0l0,-16.226l-11.096,0l0,16.226l-10.857,0l0,9.187l10.857,0l0,30.66c0,11.692 5.846,17.658 16.465,17.658c3.46,0 6.919,-0.597 9.544,-1.552l-0.356,-9.186c-1.909,0.954 -4.534,1.431 -6.562,1.431c-5.608,0 -7.994,-2.744 -7.994,-9.544l0,-29.469l15.033,0l-0.001,-9.185Z" /></g></g></g><g
     id="Ebene1"
     style="fill:#5c2d91;fill-opacity:1"><g
       id="g781"
       transform="matrix(1,0,0,1,-59.9548,53.3256)"
       style="fill:#5c2d91;fill-opacity:1"><g
         style="fill:#5c2d91;fill-opacity:1"
         id="g771"
         transform="matrix(119,0,0,119,639.907,44.5771)"><path
           id="path769"
           style="fill-rule:nonzero;fill:#5c2d91;fill-opacity:1"
           d="M0.215,-0.708l-0.129,0l0,0.708l0.099,0l0,-0.578l0.002,0l0.374,0.578l0.125,0l0,-0.708l-0.099,0l0,0.566l-0.002,0l-0.37,-0.566Z" /></g><g
         id="g775"
         transform="matrix(119,0,0,119,723.445,44.5771)"
         style="fill:#5c2d91;fill-opacity:1"><path
           id="path773"
           style="fill-rule:nonzero;fill:#5c2d91;fill-opacity:1"
           d="M0.185,-0.324l0.334,0l0,-0.085l-0.334,0l0,-0.212l0.355,0l0,-0.087l-0.454,0l0,0.708l0.469,0l0,-0.088l-0.37,0l0,-0.236Z" /></g><g
         style="fill:#5c2d91;fill-opacity:1"
         id="g779"
         transform="matrix(119,0,0,119,793.774,44.5771)"><path
           id="path777"
           style="fill-rule:nonzero;fill:#5c2d91;fill-opacity:1"
           d="M0.334,-0.621l0.227,0l0,-0.087l-0.553,0l0,0.087l0.227,0l0,0.621l0.099,0l0,-0.621Z" /></g></g></g><path
     style="fill:#6c429c;fill-opacity:1;stroke-width:0.17677669"
     d=""
     id="path4855"
     inkscape:connector-curvature="0" /><path
     style="fill:#6c429c;fill-opacity:1;stroke-width:0.17677669"
     d=""
     id="path4859"
     inkscape:connector-curvature="0" /></svg>
