<?xml version="1.0" encoding="UTF-8" standalone="no"?><svg xmlns="http://www.w3.org/2000/svg" xmlns:xlink="http://www.w3.org/1999/xlink" contentScriptType="application/ecmascript" contentStyleType="text/css" height="244px" preserveAspectRatio="none" style="width:524px;height:244px;" version="1.1" viewBox="0 0 524 244" width="524px" zoomAndPan="magnify"><defs><filter height="300%" id="f18igx7g0th6dd" width="300%" x="-1" y="-1"><feGaussianBlur result="blurOut" stdDeviation="2.0"/><feColorMatrix in="blurOut" result="blurOut2" type="matrix" values="0 0 0 0 0 0 0 0 0 0 0 0 0 0 0 0 0 0 .4 0"/><feOffset dx="4.0" dy="4.0" in="blurOut2" result="blurOut3"/><feBlend in="SourceGraphic" in2="blurOut3" mode="normal"/></filter></defs><g><!--MD5=[e320b41f2d43b11d6de1346cab4ea5fc]
cluster View--><polygon fill="#FFFFFF" filter="url(#f18igx7g0th6dd)" points="16,6,60,6,67,28.2969,305,28.2969,305,232,16,232,16,6" style="stroke: #000000; stroke-width: 1.5;"/><line style="stroke: #000000; stroke-width: 1.5;" x1="16" x2="67" y1="28.2969" y2="28.2969"/><text fill="#000000" font-family="sans-serif" font-size="14" font-weight="bold" lengthAdjust="spacingAndGlyphs" textLength="38" x="20" y="20.9951">View</text><!--MD5=[a6b7d1d3a2e7a91f17b04d3dad1c08dc]
class View.ICanvas--><rect codeLine="2" fill="#FEFECE" filter="url(#f18igx7g0th6dd)" height="48" id="View.ICanvas" style="stroke: #A80036; stroke-width: 1.5;" width="79" x="114.5" y="168"/><ellipse cx="129.5" cy="184" fill="#B4A7E5" rx="11" ry="11" style="stroke: #A80036; stroke-width: 1.0;"/><path d="M130.4531,180.7813 L132.1719,180.7813 C132.5625,180.7813 132.75,180.75 132.875,180.6719 C133.1406,180.5156 133.2813,180.2344 133.2813,179.9375 C133.2813,179.6719 133.1719,179.4063 132.9375,179.2344 C132.7656,179.125 132.625,179.0938 132.1719,179.0938 L127.0313,179.0938 C126.5938,179.0938 126.4688,179.1094 126.3125,179.2031 C126.0625,179.3594 125.9063,179.6563 125.9063,179.9375 C125.9063,180.2188 126.0469,180.4688 126.2656,180.6406 C126.4219,180.75 126.6094,180.7813 127.0313,180.7813 L128.75,180.7813 L128.75,187.2969 L127.0313,187.2969 C126.5938,187.2969 126.4688,187.3125 126.3125,187.4219 C126.0625,187.5781 125.9063,187.8594 125.9063,188.1563 C125.9063,188.4063 126.0469,188.6719 126.2656,188.8281 C126.4219,188.9531 126.625,189 127.0313,189 L132.1719,189 C132.9219,189 133.2813,188.7188 133.2813,188.1563 C133.2813,187.875 133.1719,187.625 132.9375,187.4531 C132.7656,187.3281 132.625,187.2969 132.1719,187.2969 L130.4531,187.2969 L130.4531,180.7813 Z "/><text fill="#000000" font-family="sans-serif" font-size="12" font-style="italic" lengthAdjust="spacingAndGlyphs" textLength="47" x="143.5" y="188.1543">ICanvas</text><line style="stroke: #A80036; stroke-width: 1.5;" x1="115.5" x2="192.5" y1="200" y2="200"/><line style="stroke: #A80036; stroke-width: 1.5;" x1="115.5" x2="192.5" y1="208" y2="208"/><!--MD5=[93527237836ea5c02cf9505ccfa5ff79]
class View.StartButton--><rect codeLine="3" fill="#FEFECE" filter="url(#f18igx7g0th6dd)" height="53.9375" id="View.StartButton" style="stroke: #A80036; stroke-width: 1.5;" width="98" x="32" y="47.5"/><ellipse cx="47" cy="66.4688" fill="#ADD1B2" rx="11" ry="11" style="stroke: #A80036; stroke-width: 1.0;"/><path d="M49.3438,62.1406 C48.4063,61.7031 47.8125,61.5625 46.9375,61.5625 C44.3125,61.5625 42.3125,63.6406 42.3125,66.3594 L42.3125,67.4844 C42.3125,70.0625 44.4219,71.9531 47.3125,71.9531 C48.5313,71.9531 49.6875,71.6563 50.4375,71.1094 C51.0156,70.7031 51.3438,70.25 51.3438,69.8594 C51.3438,69.4063 50.9531,69.0156 50.4844,69.0156 C50.2656,69.0156 50.0625,69.0938 49.875,69.2813 C49.4219,69.7656 49.4219,69.7656 49.2344,69.8594 C48.8125,70.125 48.125,70.25 47.3594,70.25 C45.3125,70.25 44.0156,69.1563 44.0156,67.4531 L44.0156,66.3594 C44.0156,64.5781 45.2656,63.2656 47,63.2656 C47.5781,63.2656 48.1875,63.4219 48.6563,63.6719 C49.1406,63.9531 49.3125,64.1719 49.4063,64.5781 C49.4688,64.9844 49.5,65.1094 49.6406,65.2344 C49.7813,65.375 50.0156,65.4844 50.2344,65.4844 C50.5,65.4844 50.7656,65.3438 50.9375,65.125 C51.0469,64.9688 51.0781,64.7813 51.0781,64.3594 L51.0781,62.9375 C51.0781,62.5 51.0625,62.375 50.9688,62.2188 C50.8125,61.9531 50.5313,61.8125 50.2344,61.8125 C49.9375,61.8125 49.7344,61.9063 49.5156,62.2188 L49.3438,62.1406 Z "/><text fill="#000000" font-family="sans-serif" font-size="12" font-style="italic" lengthAdjust="spacingAndGlyphs" textLength="67" x="60.5" y="63.6387">«[Display]»</text><text fill="#000000" font-family="sans-serif" font-size="12" lengthAdjust="spacingAndGlyphs" textLength="66" x="61" y="77.6074">StartButton</text><line style="stroke: #A80036; stroke-width: 1.5;" x1="33" x2="129" y1="85.4375" y2="85.4375"/><line style="stroke: #A80036; stroke-width: 1.5;" x1="33" x2="129" y1="93.4375" y2="93.4375"/><!--MD5=[0c1f3cca96f136ee020271b1d4344944]
class View.EndButton--><rect codeLine="6" fill="#FEFECE" filter="url(#f18igx7g0th6dd)" height="66.7422" id="View.EndButton" style="stroke: #A80036; stroke-width: 1.5;" width="124" x="165" y="41"/><ellipse cx="185.4" cy="59.9688" fill="#ADD1B2" rx="11" ry="11" style="stroke: #A80036; stroke-width: 1.0;"/><path d="M187.7438,55.6406 C186.8063,55.2031 186.2125,55.0625 185.3375,55.0625 C182.7125,55.0625 180.7125,57.1406 180.7125,59.8594 L180.7125,60.9844 C180.7125,63.5625 182.8219,65.4531 185.7125,65.4531 C186.9313,65.4531 188.0875,65.1563 188.8375,64.6094 C189.4156,64.2031 189.7438,63.75 189.7438,63.3594 C189.7438,62.9063 189.3531,62.5156 188.8844,62.5156 C188.6656,62.5156 188.4625,62.5938 188.275,62.7813 C187.8219,63.2656 187.8219,63.2656 187.6344,63.3594 C187.2125,63.625 186.525,63.75 185.7594,63.75 C183.7125,63.75 182.4156,62.6563 182.4156,60.9531 L182.4156,59.8594 C182.4156,58.0781 183.6656,56.7656 185.4,56.7656 C185.9781,56.7656 186.5875,56.9219 187.0563,57.1719 C187.5406,57.4531 187.7125,57.6719 187.8063,58.0781 C187.8688,58.4844 187.9,58.6094 188.0406,58.7344 C188.1813,58.875 188.4156,58.9844 188.6344,58.9844 C188.9,58.9844 189.1656,58.8438 189.3375,58.625 C189.4469,58.4688 189.4781,58.2813 189.4781,57.8594 L189.4781,56.4375 C189.4781,56 189.4625,55.875 189.3688,55.7188 C189.2125,55.4531 188.9313,55.3125 188.6344,55.3125 C188.3375,55.3125 188.1344,55.4063 187.9156,55.7188 L187.7438,55.6406 Z "/><text fill="#000000" font-family="sans-serif" font-size="12" font-style="italic" lengthAdjust="spacingAndGlyphs" textLength="84" x="198.6" y="57.1387">«NoAttribute»</text><text fill="#000000" font-family="sans-serif" font-size="12" lengthAdjust="spacingAndGlyphs" textLength="60" x="210.6" y="71.1074">EndButton</text><line style="stroke: #A80036; stroke-width: 1.5;" x1="166" x2="288" y1="78.9375" y2="78.9375"/><text fill="#000000" font-family="sans-serif" font-size="11" lengthAdjust="spacingAndGlyphs" textLength="112" x="171" y="93.1479">ICanvas endScreen</text><line style="stroke: #A80036; stroke-width: 1.5;" x1="166" x2="288" y1="99.7422" y2="99.7422"/><path d="M324,62 L324,70.5 L289.299,74.5 L324,78.5 L324,87.1328 A0,0 0 0 0 324,87.1328 L512,87.1328 A0,0 0 0 0 512,87.1328 L512,72 L502,62 L324,62 A0,0 0 0 0 324,62 " fill="#FF0000" filter="url(#f18igx7g0th6dd)" style="stroke: #A80036; stroke-width: 1.0;"/><path d="M502,62 L502,72 L512,72 L502,62 " fill="#FF0000" style="stroke: #A80036; stroke-width: 1.0;"/><text fill="#000000" font-family="sans-serif" font-size="13" lengthAdjust="spacingAndGlyphs" textLength="167" x="330" y="79.0669">Missing Attribute [Display]</text><!--MD5=[9f628363e89ac3056165be37d88dce17]
link View.StartButton to View.ICanvas--><path codeLine="5" d="M97.5648,101.709 C110.101,121.543 127.162,148.5371 139.234,167.6377 " fill="none" id="View.StartButton-View.ICanvas" style="stroke: #A80036; stroke-width: 1.0;"/><text fill="#000000" font-family="sans-serif" font-size="13" lengthAdjust="spacingAndGlyphs" textLength="78" x="14.6571" y="121.3899">startCanvas</text><!--MD5=[c7a79d3971f2ca0c563e33aafe5bd2c7]
link View.EndButton to View.ICanvas--><path codeLine="9" d="M206.276,108.289 C194.305,127.23 179.53,150.6064 168.745,167.6703 " fill="none" id="View.EndButton-View.ICanvas" style="stroke: #A80036; stroke-width: 1.0;"/><text fill="#000000" font-family="sans-serif" font-size="13" lengthAdjust="spacingAndGlyphs" textLength="72" x="128.6644" y="127.7097">endCanvas</text><!--MD5=[2aa575fa8028dfb08209e4421a69169b]
@startuml
namespace View{
    interface ICanvas{}
    class StartButton <<[Display]>>{
    }
    StartButton "startCanvas" - - ICanvas
    class EndButton <<NoAttribute>>{
    ICanvas endScreen
    }
    EndButton "endCanvas" - - ICanvas
}
note right of View.EndButton #red
    Missing Attribute [Display]
end note
@enduml

PlantUML version 1.2020.18beta4(Unknown compile time)
(GPL source distribution)
Java Runtime: Java(TM) SE Runtime Environment
JVM: Java HotSpot(TM) 64-Bit Server VM
Default Encoding: UTF-8
Language: en
Country: US
--></g></svg>
