<?xml version="1.0" encoding="UTF-8" standalone="no"?><svg xmlns="http://www.w3.org/2000/svg" xmlns:xlink="http://www.w3.org/1999/xlink" contentScriptType="application/ecmascript" contentStyleType="text/css" height="117px" preserveAspectRatio="none" style="width:528px;height:117px;" version="1.1" viewBox="0 0 528 117" width="528px" zoomAndPan="magnify"><defs><filter height="300%" id="fisyq0tpl6tf" width="300%" x="-1" y="-1"><feGaussianBlur result="blurOut" stdDeviation="2.0"/><feColorMatrix in="blurOut" result="blurOut2" type="matrix" values="0 0 0 0 0 0 0 0 0 0 0 0 0 0 0 0 0 0 .4 0"/><feOffset dx="4.0" dy="4.0" in="blurOut2" result="blurOut3"/><feBlend in="SourceGraphic" in2="blurOut3" mode="normal"/></filter></defs><g><!--MD5=[e320b41f2d43b11d6de1346cab4ea5fc]
cluster View--><polygon fill="#FFFFFF" filter="url(#fisyq0tpl6tf)" points="394,6,438,6,445,28.2969,506,28.2969,506,105,394,105,394,6" style="stroke: #000000; stroke-width: 1.5;"/><line style="stroke: #000000; stroke-width: 1.5;" x1="394" x2="445" y1="28.2969" y2="28.2969"/><text fill="#000000" font-family="sans-serif" font-size="14" font-weight="bold" lengthAdjust="spacingAndGlyphs" textLength="38" x="398" y="20.9951">View</text><!--MD5=[15636c1ca4a123c16a2a1a8e90aca7a9]
cluster Model--><polygon fill="#FFFFFF" filter="url(#fisyq0tpl6tf)" points="16,6,70,6,77,28.2969,152,28.2969,152,105,16,105,16,6" style="stroke: #000000; stroke-width: 1.5;"/><line style="stroke: #000000; stroke-width: 1.5;" x1="16" x2="77" y1="28.2969" y2="28.2969"/><text fill="#000000" font-family="sans-serif" font-size="14" font-weight="bold" lengthAdjust="spacingAndGlyphs" textLength="48" x="20" y="20.9951">Model</text><!--MD5=[a6b7d1d3a2e7a91f17b04d3dad1c08dc]
class View.ICanvas--><rect codeLine="2" fill="#FEFECE" filter="url(#fisyq0tpl6tf)" height="48" id="View.ICanvas" style="stroke: #A80036; stroke-width: 1.5;" width="79" x="410.5" y="41"/><ellipse cx="425.5" cy="57" fill="#B4A7E5" rx="11" ry="11" style="stroke: #A80036; stroke-width: 1.0;"/><path d="M426.4531,53.7813 L428.1719,53.7813 C428.5625,53.7813 428.75,53.75 428.875,53.6719 C429.1406,53.5156 429.2813,53.2344 429.2813,52.9375 C429.2813,52.6719 429.1719,52.4063 428.9375,52.2344 C428.7656,52.125 428.625,52.0938 428.1719,52.0938 L423.0313,52.0938 C422.5938,52.0938 422.4688,52.1094 422.3125,52.2031 C422.0625,52.3594 421.9063,52.6563 421.9063,52.9375 C421.9063,53.2188 422.0469,53.4688 422.2656,53.6406 C422.4219,53.75 422.6094,53.7813 423.0313,53.7813 L424.75,53.7813 L424.75,60.2969 L423.0313,60.2969 C422.5938,60.2969 422.4688,60.3125 422.3125,60.4219 C422.0625,60.5781 421.9063,60.8594 421.9063,61.1563 C421.9063,61.4063 422.0469,61.6719 422.2656,61.8281 C422.4219,61.9531 422.625,62 423.0313,62 L428.1719,62 C428.9219,62 429.2813,61.7188 429.2813,61.1563 C429.2813,60.875 429.1719,60.625 428.9375,60.4531 C428.7656,60.3281 428.625,60.2969 428.1719,60.2969 L426.4531,60.2969 L426.4531,53.7813 Z "/><text fill="#000000" font-family="sans-serif" font-size="12" font-style="italic" lengthAdjust="spacingAndGlyphs" textLength="47" x="439.5" y="61.1543">ICanvas</text><line style="stroke: #A80036; stroke-width: 1.5;" x1="411.5" x2="488.5" y1="73" y2="73"/><line style="stroke: #A80036; stroke-width: 1.5;" x1="411.5" x2="488.5" y1="81" y2="81"/><!--MD5=[630e0663f37d07d7866c64cfe91d99a6]
class Model.StartCanvas--><rect fill="#FEFECE" filter="url(#fisyq0tpl6tf)" height="48" id="Model.StartCanvas" style="stroke: #A80036; stroke-width: 1.5;" width="103" x="32.5" y="41"/><ellipse cx="47.5" cy="57" fill="#ADD1B2" rx="11" ry="11" style="stroke: #A80036; stroke-width: 1.0;"/><path d="M49.8438,52.6719 C48.9063,52.2344 48.3125,52.0938 47.4375,52.0938 C44.8125,52.0938 42.8125,54.1719 42.8125,56.8906 L42.8125,58.0156 C42.8125,60.5938 44.9219,62.4844 47.8125,62.4844 C49.0313,62.4844 50.1875,62.1875 50.9375,61.6406 C51.5156,61.2344 51.8438,60.7813 51.8438,60.3906 C51.8438,59.9375 51.4531,59.5469 50.9844,59.5469 C50.7656,59.5469 50.5625,59.625 50.375,59.8125 C49.9219,60.2969 49.9219,60.2969 49.7344,60.3906 C49.3125,60.6563 48.625,60.7813 47.8594,60.7813 C45.8125,60.7813 44.5156,59.6875 44.5156,57.9844 L44.5156,56.8906 C44.5156,55.1094 45.7656,53.7969 47.5,53.7969 C48.0781,53.7969 48.6875,53.9531 49.1563,54.2031 C49.6406,54.4844 49.8125,54.7031 49.9063,55.1094 C49.9688,55.5156 50,55.6406 50.1406,55.7656 C50.2813,55.9063 50.5156,56.0156 50.7344,56.0156 C51,56.0156 51.2656,55.875 51.4375,55.6563 C51.5469,55.5 51.5781,55.3125 51.5781,54.8906 L51.5781,53.4688 C51.5781,53.0313 51.5625,52.9063 51.4688,52.75 C51.3125,52.4844 51.0313,52.3438 50.7344,52.3438 C50.4375,52.3438 50.2344,52.4375 50.0156,52.75 L49.8438,52.6719 Z "/><text fill="#000000" font-family="sans-serif" font-size="12" lengthAdjust="spacingAndGlyphs" textLength="71" x="61.5" y="61.1543">StartCanvas</text><line style="stroke: #A80036; stroke-width: 1.5;" x1="33.5" x2="134.5" y1="73" y2="73"/><line style="stroke: #A80036; stroke-width: 1.5;" x1="33.5" x2="134.5" y1="81" y2="81"/><path d="M170.5,52.5 L170.5,61 L135.68,65 L170.5,69 L170.5,77.6328 A0,0 0 0 0 170.5,77.6328 L375.5,77.6328 A0,0 0 0 0 375.5,77.6328 L375.5,62.5 L365.5,52.5 L170.5,52.5 A0,0 0 0 0 170.5,52.5 " fill="#FF0000" filter="url(#fisyq0tpl6tf)" style="stroke: #A80036; stroke-width: 1.0;"/><path d="M365.5,52.5 L365.5,62.5 L375.5,62.5 L365.5,52.5 " fill="#FF0000" style="stroke: #A80036; stroke-width: 1.0;"/><text fill="#000000" font-family="sans-serif" font-size="13" lengthAdjust="spacingAndGlyphs" textLength="184" x="176.5" y="69.5669">resides in wrong namespace</text><!--MD5=[d5fc74035ba28f79510463acb6a9c8bc]
@startuml
namespace View{
    interface ICanvas{
    }
}
note right of Model.StartCanvas #red: resides in wrong namespace
@enduml

PlantUML version 1.2020.17(Sat Sep 19 12:30:11 UTC 2020)
(GPL source distribution)
Java Runtime: Java(TM) SE Runtime Environment
JVM: Java HotSpot(TM) 64-Bit Server VM
Default Encoding: UTF-8
Language: en
Country: US
--></g></svg>
