<?xml version="1.0" encoding="UTF-8" standalone="no"?><svg xmlns="http://www.w3.org/2000/svg" xmlns:xlink="http://www.w3.org/1999/xlink" contentScriptType="application/ecmascript" contentStyleType="text/css" height="117px" preserveAspectRatio="none" style="width:336px;height:117px;" version="1.1" viewBox="0 0 336 117" width="336px" zoomAndPan="magnify"><defs><filter height="300%" id="f10h725vpr726o" width="300%" x="-1" y="-1"><feGaussianBlur result="blurOut" stdDeviation="2.0"/><feColorMatrix in="blurOut" result="blurOut2" type="matrix" values="0 0 0 0 0 0 0 0 0 0 0 0 0 0 0 0 0 0 .4 0"/><feOffset dx="4.0" dy="4.0" in="blurOut2" result="blurOut3"/><feBlend in="SourceGraphic" in2="blurOut3" mode="normal"/></filter></defs><g><!--MD5=[15636c1ca4a123c16a2a1a8e90aca7a9]
cluster Model--><polygon fill="#FFFFFF" filter="url(#f10h725vpr726o)" points="226,6,280,6,287,28.2969,314,28.2969,314,105,226,105,226,6" style="stroke: #000000; stroke-width: 1.5;"/><line style="stroke: #000000; stroke-width: 1.5;" x1="226" x2="287" y1="28.2969" y2="28.2969"/><text fill="#000000" font-family="sans-serif" font-size="14" font-weight="bold" lengthAdjust="spacingAndGlyphs" textLength="48" x="230" y="20.9951">Model</text><!--MD5=[e320b41f2d43b11d6de1346cab4ea5fc]
cluster View--><polygon fill="#FFFFFF" filter="url(#f10h725vpr726o)" points="16,6,60,6,67,28.2969,128,28.2969,128,105,16,105,16,6" style="stroke: #000000; stroke-width: 1.5;"/><line style="stroke: #000000; stroke-width: 1.5;" x1="16" x2="67" y1="28.2969" y2="28.2969"/><text fill="#000000" font-family="sans-serif" font-size="14" font-weight="bold" lengthAdjust="spacingAndGlyphs" textLength="38" x="20" y="20.9951">View</text><!--MD5=[7fd0e0e10ced30f963325ac915c15b4a]
class Model.ICar--><rect codeLine="2" fill="#FEFECE" filter="url(#f10h725vpr726o)" height="48" id="Model.ICar" style="stroke: #A80036; stroke-width: 1.5;" width="56" x="242" y="41"/><ellipse cx="257" cy="57" fill="#B4A7E5" rx="11" ry="11" style="stroke: #A80036; stroke-width: 1.0;"/><path d="M257.9531,53.7813 L259.6719,53.7813 C260.0625,53.7813 260.25,53.75 260.375,53.6719 C260.6406,53.5156 260.7813,53.2344 260.7813,52.9375 C260.7813,52.6719 260.6719,52.4063 260.4375,52.2344 C260.2656,52.125 260.125,52.0938 259.6719,52.0938 L254.5313,52.0938 C254.0938,52.0938 253.9688,52.1094 253.8125,52.2031 C253.5625,52.3594 253.4063,52.6563 253.4063,52.9375 C253.4063,53.2188 253.5469,53.4688 253.7656,53.6406 C253.9219,53.75 254.1094,53.7813 254.5313,53.7813 L256.25,53.7813 L256.25,60.2969 L254.5313,60.2969 C254.0938,60.2969 253.9688,60.3125 253.8125,60.4219 C253.5625,60.5781 253.4063,60.8594 253.4063,61.1563 C253.4063,61.4063 253.5469,61.6719 253.7656,61.8281 C253.9219,61.9531 254.125,62 254.5313,62 L259.6719,62 C260.4219,62 260.7813,61.7188 260.7813,61.1563 C260.7813,60.875 260.6719,60.625 260.4375,60.4531 C260.2656,60.3281 260.125,60.2969 259.6719,60.2969 L257.9531,60.2969 L257.9531,53.7813 Z "/><text fill="#000000" font-family="sans-serif" font-size="12" font-style="italic" lengthAdjust="spacingAndGlyphs" textLength="24" x="271" y="61.1543">ICar</text><line style="stroke: #A80036; stroke-width: 1.5;" x1="243" x2="297" y1="73" y2="73"/><line style="stroke: #A80036; stroke-width: 1.5;" x1="243" x2="297" y1="81" y2="81"/><!--MD5=[a6b7d1d3a2e7a91f17b04d3dad1c08dc]
class View.ICanvas--><rect codeLine="5" fill="#FEFECE" filter="url(#f10h725vpr726o)" height="48" id="View.ICanvas" style="stroke: #A80036; stroke-width: 1.5;" width="79" x="32.5" y="41"/><ellipse cx="47.5" cy="57" fill="#B4A7E5" rx="11" ry="11" style="stroke: #A80036; stroke-width: 1.0;"/><path d="M48.4531,53.7813 L50.1719,53.7813 C50.5625,53.7813 50.75,53.75 50.875,53.6719 C51.1406,53.5156 51.2813,53.2344 51.2813,52.9375 C51.2813,52.6719 51.1719,52.4063 50.9375,52.2344 C50.7656,52.125 50.625,52.0938 50.1719,52.0938 L45.0313,52.0938 C44.5938,52.0938 44.4688,52.1094 44.3125,52.2031 C44.0625,52.3594 43.9063,52.6563 43.9063,52.9375 C43.9063,53.2188 44.0469,53.4688 44.2656,53.6406 C44.4219,53.75 44.6094,53.7813 45.0313,53.7813 L46.75,53.7813 L46.75,60.2969 L45.0313,60.2969 C44.5938,60.2969 44.4688,60.3125 44.3125,60.4219 C44.0625,60.5781 43.9063,60.8594 43.9063,61.1563 C43.9063,61.4063 44.0469,61.6719 44.2656,61.8281 C44.4219,61.9531 44.625,62 45.0313,62 L50.1719,62 C50.9219,62 51.2813,61.7188 51.2813,61.1563 C51.2813,60.875 51.1719,60.625 50.9375,60.4531 C50.7656,60.3281 50.625,60.2969 50.1719,60.2969 L48.4531,60.2969 L48.4531,53.7813 Z "/><text fill="#000000" font-family="sans-serif" font-size="12" font-style="italic" lengthAdjust="spacingAndGlyphs" textLength="47" x="61.5" y="61.1543">ICanvas</text><line style="stroke: #A80036; stroke-width: 1.5;" x1="33.5" x2="110.5" y1="73" y2="73"/><line style="stroke: #A80036; stroke-width: 1.5;" x1="33.5" x2="110.5" y1="81" y2="81"/><!--MD5=[32fe90853c138f29a0b45a40d150f370]
reverse link View.ICanvas to Model.ICar--><path codeLine="7" d="M116.67,65 C155.105,65 209.365,65 241.971,65 " fill="none" id="View.ICanvas-backto-Model.ICar" style="stroke: #A80036; stroke-width: 1.0;"/><polygon fill="#A80036" points="111.592,65,120.592,69,116.592,65,120.592,61,111.592,65" style="stroke: #A80036; stroke-width: 1.0;"/><path d="M133.75,28 L133.75,53 L215.75,53 L215.75,38 L205.75,28 L133.75,28 " fill="#FF0000" filter="url(#f10h725vpr726o)" style="stroke: #A80036; stroke-width: 1.0;"/><path d="M205.75,28 L205.75,38 L215.75,38 L205.75,28 " fill="#FF0000" style="stroke: #A80036; stroke-width: 1.0;"/><text fill="#000000" font-family="sans-serif" font-size="13" lengthAdjust="spacingAndGlyphs" textLength="61" x="139.75" y="45.0669">forbidden</text><!--MD5=[6fef368dfce88c57a557ee37aa053de1]
@startuml
namespace Model{
    interface ICar{}
    }
namespace View{
    interface ICanvas{}
    }
Model.ICar - -l- -> View.ICanvas
note on link #red: forbidden
@enduml

PlantUML version 1.2020.17(Sat Sep 19 12:30:11 UTC 2020)
(GPL source distribution)
Java Runtime: Java(TM) SE Runtime Environment
JVM: Java HotSpot(TM) 64-Bit Server VM
Default Encoding: UTF-8
Language: en
Country: US
--></g></svg>
