<?xml version="1.0" encoding="UTF-8" standalone="no"?><svg xmlns="http://www.w3.org/2000/svg" xmlns:xlink="http://www.w3.org/1999/xlink" contentScriptType="application/ecmascript" contentStyleType="text/css" height="381px" preserveAspectRatio="none" style="width:596px;height:381px;" version="1.1" viewBox="0 0 596 381" width="596px" zoomAndPan="magnify"><defs><filter height="300%" id="fmof9gh2giihq" width="300%" x="-1" y="-1"><feGaussianBlur result="blurOut" stdDeviation="2.0"/><feColorMatrix in="blurOut" result="blurOut2" type="matrix" values="0 0 0 0 0 0 0 0 0 0 0 0 0 0 0 0 0 0 .4 0"/><feOffset dx="4.0" dy="4.0" in="blurOut2" result="blurOut3"/><feBlend in="SourceGraphic" in2="blurOut3" mode="normal"/></filter></defs><g><!--MD5=[9090aed5f37fe79b090734dc182462e8]
cluster Module.One--><polygon fill="#FFFFFF" filter="url(#fmof9gh2giihq)" points="133,6,233,6,240,28.2969,379,28.2969,379,105,133,105,133,6" style="stroke: #000000; stroke-width: 1.5;"/><line style="stroke: #000000; stroke-width: 1.5;" x1="133" x2="240" y1="28.2969" y2="28.2969"/><text fill="#000000" font-family="sans-serif" font-size="14" font-weight="bold" lengthAdjust="spacingAndGlyphs" textLength="94" x="137" y="20.9951">Module.One</text><!--MD5=[75f600471531b4d5f4affc59e96e3b44]
cluster Module.Two--><polygon fill="#FFFFFF" filter="url(#fmof9gh2giihq)" points="16,138,119,138,126,160.2969,262,160.2969,262,237,16,237,16,138" style="stroke: #000000; stroke-width: 1.5;"/><line style="stroke: #000000; stroke-width: 1.5;" x1="16" x2="126" y1="160.2969" y2="160.2969"/><text fill="#000000" font-family="sans-serif" font-size="14" font-weight="bold" lengthAdjust="spacingAndGlyphs" textLength="97" x="20" y="152.9951">Module.Two</text><!--MD5=[c47310879c33727ca99b9dbe54491704]
cluster Module.Three--><polygon fill="#FFFFFF" filter="url(#fmof9gh2giihq)" points="133,270,248,270,255,292.2969,379,292.2969,379,369,133,369,133,270" style="stroke: #000000; stroke-width: 1.5;"/><line style="stroke: #000000; stroke-width: 1.5;" x1="133" x2="255" y1="292.2969" y2="292.2969"/><text fill="#000000" font-family="sans-serif" font-size="14" font-weight="bold" lengthAdjust="spacingAndGlyphs" textLength="109" x="137" y="284.9951">Module.Three</text><!--MD5=[58ae24bbfb318819b74a1e619bbb2afd]
class Module.One.ClassOne--><rect codeLine="2" fill="#FEFECE" filter="url(#fmof9gh2giihq)" height="48" id="Module.One.ClassOne" style="stroke: #A80036; stroke-width: 1.5;" width="89" x="149.5" y="41"/><ellipse cx="164.5" cy="57" fill="#ADD1B2" rx="11" ry="11" style="stroke: #A80036; stroke-width: 1.0;"/><path d="M166.8438,52.6719 C165.9063,52.2344 165.3125,52.0938 164.4375,52.0938 C161.8125,52.0938 159.8125,54.1719 159.8125,56.8906 L159.8125,58.0156 C159.8125,60.5938 161.9219,62.4844 164.8125,62.4844 C166.0313,62.4844 167.1875,62.1875 167.9375,61.6406 C168.5156,61.2344 168.8438,60.7813 168.8438,60.3906 C168.8438,59.9375 168.4531,59.5469 167.9844,59.5469 C167.7656,59.5469 167.5625,59.625 167.375,59.8125 C166.9219,60.2969 166.9219,60.2969 166.7344,60.3906 C166.3125,60.6563 165.625,60.7813 164.8594,60.7813 C162.8125,60.7813 161.5156,59.6875 161.5156,57.9844 L161.5156,56.8906 C161.5156,55.1094 162.7656,53.7969 164.5,53.7969 C165.0781,53.7969 165.6875,53.9531 166.1563,54.2031 C166.6406,54.4844 166.8125,54.7031 166.9063,55.1094 C166.9688,55.5156 167,55.6406 167.1406,55.7656 C167.2813,55.9063 167.5156,56.0156 167.7344,56.0156 C168,56.0156 168.2656,55.875 168.4375,55.6563 C168.5469,55.5 168.5781,55.3125 168.5781,54.8906 L168.5781,53.4688 C168.5781,53.0313 168.5625,52.9063 168.4688,52.75 C168.3125,52.4844 168.0313,52.3438 167.7344,52.3438 C167.4375,52.3438 167.2344,52.4375 167.0156,52.75 L166.8438,52.6719 Z "/><text fill="#000000" font-family="sans-serif" font-size="12" lengthAdjust="spacingAndGlyphs" textLength="57" x="178.5" y="61.1543">ClassOne</text><line style="stroke: #A80036; stroke-width: 1.5;" x1="150.5" x2="237.5" y1="73" y2="73"/><line style="stroke: #A80036; stroke-width: 1.5;" x1="150.5" x2="237.5" y1="81" y2="81"/><!--MD5=[6a21f73b96e3768b4160e0af82d483e3]
class Module.One.ClassTwo--><rect codeLine="4" fill="#FEFECE" filter="url(#fmof9gh2giihq)" height="48" id="Module.One.ClassTwo" style="stroke: #A80036; stroke-width: 1.5;" width="89" x="273.5" y="41"/><ellipse cx="288.5" cy="57" fill="#ADD1B2" rx="11" ry="11" style="stroke: #A80036; stroke-width: 1.0;"/><path d="M290.8438,52.6719 C289.9063,52.2344 289.3125,52.0938 288.4375,52.0938 C285.8125,52.0938 283.8125,54.1719 283.8125,56.8906 L283.8125,58.0156 C283.8125,60.5938 285.9219,62.4844 288.8125,62.4844 C290.0313,62.4844 291.1875,62.1875 291.9375,61.6406 C292.5156,61.2344 292.8438,60.7813 292.8438,60.3906 C292.8438,59.9375 292.4531,59.5469 291.9844,59.5469 C291.7656,59.5469 291.5625,59.625 291.375,59.8125 C290.9219,60.2969 290.9219,60.2969 290.7344,60.3906 C290.3125,60.6563 289.625,60.7813 288.8594,60.7813 C286.8125,60.7813 285.5156,59.6875 285.5156,57.9844 L285.5156,56.8906 C285.5156,55.1094 286.7656,53.7969 288.5,53.7969 C289.0781,53.7969 289.6875,53.9531 290.1563,54.2031 C290.6406,54.4844 290.8125,54.7031 290.9063,55.1094 C290.9688,55.5156 291,55.6406 291.1406,55.7656 C291.2813,55.9063 291.5156,56.0156 291.7344,56.0156 C292,56.0156 292.2656,55.875 292.4375,55.6563 C292.5469,55.5 292.5781,55.3125 292.5781,54.8906 L292.5781,53.4688 C292.5781,53.0313 292.5625,52.9063 292.4688,52.75 C292.3125,52.4844 292.0313,52.3438 291.7344,52.3438 C291.4375,52.3438 291.2344,52.4375 291.0156,52.75 L290.8438,52.6719 Z "/><text fill="#000000" font-family="sans-serif" font-size="12" lengthAdjust="spacingAndGlyphs" textLength="57" x="302.5" y="61.1543">ClassTwo</text><line style="stroke: #A80036; stroke-width: 1.5;" x1="274.5" x2="361.5" y1="73" y2="73"/><line style="stroke: #A80036; stroke-width: 1.5;" x1="274.5" x2="361.5" y1="81" y2="81"/><!--MD5=[49ffc4bfe7faef83d60dd2099bef7033]
class Module.Two.ClassTwo--><rect codeLine="11" fill="#FEFECE" filter="url(#fmof9gh2giihq)" height="48" id="Module.Two.ClassTwo" style="stroke: #A80036; stroke-width: 1.5;" width="89" x="156.5" y="173"/><ellipse cx="171.5" cy="189" fill="#ADD1B2" rx="11" ry="11" style="stroke: #A80036; stroke-width: 1.0;"/><path d="M173.8438,184.6719 C172.9063,184.2344 172.3125,184.0938 171.4375,184.0938 C168.8125,184.0938 166.8125,186.1719 166.8125,188.8906 L166.8125,190.0156 C166.8125,192.5938 168.9219,194.4844 171.8125,194.4844 C173.0313,194.4844 174.1875,194.1875 174.9375,193.6406 C175.5156,193.2344 175.8438,192.7813 175.8438,192.3906 C175.8438,191.9375 175.4531,191.5469 174.9844,191.5469 C174.7656,191.5469 174.5625,191.625 174.375,191.8125 C173.9219,192.2969 173.9219,192.2969 173.7344,192.3906 C173.3125,192.6563 172.625,192.7813 171.8594,192.7813 C169.8125,192.7813 168.5156,191.6875 168.5156,189.9844 L168.5156,188.8906 C168.5156,187.1094 169.7656,185.7969 171.5,185.7969 C172.0781,185.7969 172.6875,185.9531 173.1563,186.2031 C173.6406,186.4844 173.8125,186.7031 173.9063,187.1094 C173.9688,187.5156 174,187.6406 174.1406,187.7656 C174.2813,187.9063 174.5156,188.0156 174.7344,188.0156 C175,188.0156 175.2656,187.875 175.4375,187.6563 C175.5469,187.5 175.5781,187.3125 175.5781,186.8906 L175.5781,185.4688 C175.5781,185.0313 175.5625,184.9063 175.4688,184.75 C175.3125,184.4844 175.0313,184.3438 174.7344,184.3438 C174.4375,184.3438 174.2344,184.4375 174.0156,184.75 L173.8438,184.6719 Z "/><text fill="#000000" font-family="sans-serif" font-size="12" lengthAdjust="spacingAndGlyphs" textLength="57" x="185.5" y="193.1543">ClassTwo</text><line style="stroke: #A80036; stroke-width: 1.5;" x1="157.5" x2="244.5" y1="205" y2="205"/><line style="stroke: #A80036; stroke-width: 1.5;" x1="157.5" x2="244.5" y1="213" y2="213"/><!--MD5=[56facfd928885799d579899bc2bb6ed6]
class Module.Two.ClassOne--><rect codeLine="9" fill="#FEFECE" filter="url(#fmof9gh2giihq)" height="48" id="Module.Two.ClassOne" style="stroke: #A80036; stroke-width: 1.5;" width="89" x="32.5" y="173"/><ellipse cx="47.5" cy="189" fill="#ADD1B2" rx="11" ry="11" style="stroke: #A80036; stroke-width: 1.0;"/><path d="M49.8438,184.6719 C48.9063,184.2344 48.3125,184.0938 47.4375,184.0938 C44.8125,184.0938 42.8125,186.1719 42.8125,188.8906 L42.8125,190.0156 C42.8125,192.5938 44.9219,194.4844 47.8125,194.4844 C49.0313,194.4844 50.1875,194.1875 50.9375,193.6406 C51.5156,193.2344 51.8438,192.7813 51.8438,192.3906 C51.8438,191.9375 51.4531,191.5469 50.9844,191.5469 C50.7656,191.5469 50.5625,191.625 50.375,191.8125 C49.9219,192.2969 49.9219,192.2969 49.7344,192.3906 C49.3125,192.6563 48.625,192.7813 47.8594,192.7813 C45.8125,192.7813 44.5156,191.6875 44.5156,189.9844 L44.5156,188.8906 C44.5156,187.1094 45.7656,185.7969 47.5,185.7969 C48.0781,185.7969 48.6875,185.9531 49.1563,186.2031 C49.6406,186.4844 49.8125,186.7031 49.9063,187.1094 C49.9688,187.5156 50,187.6406 50.1406,187.7656 C50.2813,187.9063 50.5156,188.0156 50.7344,188.0156 C51,188.0156 51.2656,187.875 51.4375,187.6563 C51.5469,187.5 51.5781,187.3125 51.5781,186.8906 L51.5781,185.4688 C51.5781,185.0313 51.5625,184.9063 51.4688,184.75 C51.3125,184.4844 51.0313,184.3438 50.7344,184.3438 C50.4375,184.3438 50.2344,184.4375 50.0156,184.75 L49.8438,184.6719 Z "/><text fill="#000000" font-family="sans-serif" font-size="12" lengthAdjust="spacingAndGlyphs" textLength="57" x="61.5" y="193.1543">ClassOne</text><line style="stroke: #A80036; stroke-width: 1.5;" x1="33.5" x2="120.5" y1="205" y2="205"/><line style="stroke: #A80036; stroke-width: 1.5;" x1="33.5" x2="120.5" y1="213" y2="213"/><!--MD5=[06efd1d27123bf99b78ff29f113f709b]
class Module.Three.ClassTwo--><rect codeLine="18" fill="#FEFECE" filter="url(#fmof9gh2giihq)" height="48" id="Module.Three.ClassTwo" style="stroke: #A80036; stroke-width: 1.5;" width="89" x="149.5" y="305"/><ellipse cx="164.5" cy="321" fill="#ADD1B2" rx="11" ry="11" style="stroke: #A80036; stroke-width: 1.0;"/><path d="M166.8438,316.6719 C165.9063,316.2344 165.3125,316.0938 164.4375,316.0938 C161.8125,316.0938 159.8125,318.1719 159.8125,320.8906 L159.8125,322.0156 C159.8125,324.5938 161.9219,326.4844 164.8125,326.4844 C166.0313,326.4844 167.1875,326.1875 167.9375,325.6406 C168.5156,325.2344 168.8438,324.7813 168.8438,324.3906 C168.8438,323.9375 168.4531,323.5469 167.9844,323.5469 C167.7656,323.5469 167.5625,323.625 167.375,323.8125 C166.9219,324.2969 166.9219,324.2969 166.7344,324.3906 C166.3125,324.6563 165.625,324.7813 164.8594,324.7813 C162.8125,324.7813 161.5156,323.6875 161.5156,321.9844 L161.5156,320.8906 C161.5156,319.1094 162.7656,317.7969 164.5,317.7969 C165.0781,317.7969 165.6875,317.9531 166.1563,318.2031 C166.6406,318.4844 166.8125,318.7031 166.9063,319.1094 C166.9688,319.5156 167,319.6406 167.1406,319.7656 C167.2813,319.9063 167.5156,320.0156 167.7344,320.0156 C168,320.0156 168.2656,319.875 168.4375,319.6563 C168.5469,319.5 168.5781,319.3125 168.5781,318.8906 L168.5781,317.4688 C168.5781,317.0313 168.5625,316.9063 168.4688,316.75 C168.3125,316.4844 168.0313,316.3438 167.7344,316.3438 C167.4375,316.3438 167.2344,316.4375 167.0156,316.75 L166.8438,316.6719 Z "/><text fill="#000000" font-family="sans-serif" font-size="12" lengthAdjust="spacingAndGlyphs" textLength="57" x="178.5" y="325.1543">ClassTwo</text><line style="stroke: #A80036; stroke-width: 1.5;" x1="150.5" x2="237.5" y1="337" y2="337"/><line style="stroke: #A80036; stroke-width: 1.5;" x1="150.5" x2="237.5" y1="345" y2="345"/><!--MD5=[29022ac59d735a5a377ec1d7e21f01be]
class Module.Three.ClassOne--><rect codeLine="16" fill="#FEFECE" filter="url(#fmof9gh2giihq)" height="48" id="Module.Three.ClassOne" style="stroke: #A80036; stroke-width: 1.5;" width="89" x="273.5" y="305"/><ellipse cx="288.5" cy="321" fill="#ADD1B2" rx="11" ry="11" style="stroke: #A80036; stroke-width: 1.0;"/><path d="M290.8438,316.6719 C289.9063,316.2344 289.3125,316.0938 288.4375,316.0938 C285.8125,316.0938 283.8125,318.1719 283.8125,320.8906 L283.8125,322.0156 C283.8125,324.5938 285.9219,326.4844 288.8125,326.4844 C290.0313,326.4844 291.1875,326.1875 291.9375,325.6406 C292.5156,325.2344 292.8438,324.7813 292.8438,324.3906 C292.8438,323.9375 292.4531,323.5469 291.9844,323.5469 C291.7656,323.5469 291.5625,323.625 291.375,323.8125 C290.9219,324.2969 290.9219,324.2969 290.7344,324.3906 C290.3125,324.6563 289.625,324.7813 288.8594,324.7813 C286.8125,324.7813 285.5156,323.6875 285.5156,321.9844 L285.5156,320.8906 C285.5156,319.1094 286.7656,317.7969 288.5,317.7969 C289.0781,317.7969 289.6875,317.9531 290.1563,318.2031 C290.6406,318.4844 290.8125,318.7031 290.9063,319.1094 C290.9688,319.5156 291,319.6406 291.1406,319.7656 C291.2813,319.9063 291.5156,320.0156 291.7344,320.0156 C292,320.0156 292.2656,319.875 292.4375,319.6563 C292.5469,319.5 292.5781,319.3125 292.5781,318.8906 L292.5781,317.4688 C292.5781,317.0313 292.5625,316.9063 292.4688,316.75 C292.3125,316.4844 292.0313,316.3438 291.7344,316.3438 C291.4375,316.3438 291.2344,316.4375 291.0156,316.75 L290.8438,316.6719 Z "/><text fill="#000000" font-family="sans-serif" font-size="12" lengthAdjust="spacingAndGlyphs" textLength="57" x="302.5" y="325.1543">ClassOne</text><line style="stroke: #A80036; stroke-width: 1.5;" x1="274.5" x2="361.5" y1="337" y2="337"/><line style="stroke: #A80036; stroke-width: 1.5;" x1="274.5" x2="361.5" y1="345" y2="345"/><!--MD5=[f74fa461e255acdf735c23e8b934c5f8]
link Module.One.ClassOne to Module.Two.ClassTwo--><path codeLine="7" d="M195.251,89.241 C196.436,111.24 198.216,144.305 199.482,167.802 " fill="none" id="Module.One.ClassOne-to-Module.Two.ClassTwo" style="stroke: #A80036; stroke-width: 1.0;"/><polygon fill="#A80036" points="199.759,172.96,203.2698,163.7581,199.4904,167.9672,195.2814,164.1878,199.759,172.96" style="stroke: #A80036; stroke-width: 1.0;"/><!--MD5=[597d18a1dbe8dbbbb48b04395b3c4dce]
link Module.Two.ClassOne to Module.Three.ClassTwo--><path codeLine="14" d="M97.9173,221.241 C118.049,243.61 148.478,277.42 169.68,300.9783 " fill="none" id="Module.Two.ClassOne-to-Module.Three.ClassTwo" style="stroke: #A80036; stroke-width: 1.0;"/><polygon fill="#A80036" points="173.264,304.9598,170.2173,295.594,169.9195,301.243,164.2705,300.9452,173.264,304.9598" style="stroke: #A80036; stroke-width: 1.0;"/><!--MD5=[6dad2b65c829bd7be8cfde347858e5a2]
link Module.Three.ClassOne to Module.One.ClassTwo--><path codeLine="21" d="M318,304.8014 C318,256.778 318,146.61 318,94.418 " fill="none" id="Module.Three.ClassOne-to-Module.One.ClassTwo" style="stroke: #A80036; stroke-width: 1.0;"/><polygon fill="#A80036" points="318,89.251,314,98.251,318,94.251,322,98.251,318,89.251" style="stroke: #A80036; stroke-width: 1.0;"/><path d="M323,182.5 L323,207.5 L584,207.5 L584,192.5 L574,182.5 L323,182.5 " fill="#FF0000" filter="url(#fmof9gh2giihq)" style="stroke: #A80036; stroke-width: 1.0;"/><path d="M574,182.5 L574,192.5 L584,192.5 L574,182.5 " fill="#FF0000" style="stroke: #A80036; stroke-width: 1.0;"/><text fill="#000000" font-family="sans-serif" font-size="13" lengthAdjust="spacingAndGlyphs" textLength="240" x="329" y="199.5669">Combination of accesses forms cycle</text><!--MD5=[91f941afd55d62c173d6ee3e01d3639c]
@startuml
namespace Module.One{
    class ClassOne{
    }
    class ClassTwo{
    }
}
Module.One.ClassOne - -> Module.Two.ClassTwo
namespace Module.Two{
    class ClassOne{
    }
    class ClassTwo{
    }
}
Module.Two.ClassOne - -> Module.Three.ClassTwo
namespace Module.Three{
    class ClassOne{
    }
    class ClassTwo{
    }
}
Module.Three.ClassOne - -> Module.One.ClassTwo
note on link #red 
    Combination of accesses forms cycle
end note
@enduml

PlantUML version 1.2020.18beta4(Unknown compile time)
(GPL source distribution)
Java Runtime: Java(TM) SE Runtime Environment
JVM: Java HotSpot(TM) 64-Bit Server VM
Default Encoding: UTF-8
Language: en
Country: US
--></g></svg>
