<?xml version="1.0" encoding="UTF-8" standalone="no"?><svg xmlns="http://www.w3.org/2000/svg" xmlns:xlink="http://www.w3.org/1999/xlink" contentScriptType="application/ecmascript" contentStyleType="text/css" height="182px" preserveAspectRatio="none" style="width:404px;height:182px;" version="1.1" viewBox="0 0 404 182" width="404px" zoomAndPan="magnify"><defs><filter height="300%" id="f1mm5gh1e4o1hx" width="300%" x="-1" y="-1"><feGaussianBlur result="blurOut" stdDeviation="2.0"/><feColorMatrix in="blurOut" result="blurOut2" type="matrix" values="0 0 0 0 0 0 0 0 0 0 0 0 0 0 0 0 0 0 .4 0"/><feOffset dx="4.0" dy="4.0" in="blurOut2" result="blurOut3"/><feBlend in="SourceGraphic" in2="blurOut3" mode="normal"/></filter></defs><g><!--MD5=[f8dac95748d24c8699dfd8a15cfaa24b]
class ICar--><rect codeLine="1" fill="#FEFECE" filter="url(#f1mm5gh1e4o1hx)" height="48" id="ICar" style="stroke: #A80036; stroke-width: 1.5;" width="56" x="256" y="7"/><ellipse cx="271" cy="23" fill="#B4A7E5" rx="11" ry="11" style="stroke: #A80036; stroke-width: 1.0;"/><path d="M271.9531,19.7813 L273.6719,19.7813 C274.0625,19.7813 274.25,19.75 274.375,19.6719 C274.6406,19.5156 274.7813,19.2344 274.7813,18.9375 C274.7813,18.6719 274.6719,18.4063 274.4375,18.2344 C274.2656,18.125 274.125,18.0938 273.6719,18.0938 L268.5313,18.0938 C268.0938,18.0938 267.9688,18.1094 267.8125,18.2031 C267.5625,18.3594 267.4063,18.6563 267.4063,18.9375 C267.4063,19.2188 267.5469,19.4688 267.7656,19.6406 C267.9219,19.75 268.1094,19.7813 268.5313,19.7813 L270.25,19.7813 L270.25,26.2969 L268.5313,26.2969 C268.0938,26.2969 267.9688,26.3125 267.8125,26.4219 C267.5625,26.5781 267.4063,26.8594 267.4063,27.1563 C267.4063,27.4063 267.5469,27.6719 267.7656,27.8281 C267.9219,27.9531 268.125,28 268.5313,28 L273.6719,28 C274.4219,28 274.7813,27.7188 274.7813,27.1563 C274.7813,26.875 274.6719,26.625 274.4375,26.4531 C274.2656,26.3281 274.125,26.2969 273.6719,26.2969 L271.9531,26.2969 L271.9531,19.7813 Z "/><text fill="#000000" font-family="sans-serif" font-size="12" font-style="italic" lengthAdjust="spacingAndGlyphs" textLength="24" x="285" y="27.1543">ICar</text><line style="stroke: #A80036; stroke-width: 1.5;" x1="257" x2="311" y1="39" y2="39"/><line style="stroke: #A80036; stroke-width: 1.5;" x1="257" x2="311" y1="47" y2="47"/><!--MD5=[4ece5bb0db88c4a53a10640ecf9cee0e]
class FastCar--><rect codeLine="3" fill="#FEFECE" filter="url(#f1mm5gh1e4o1hx)" height="48" id="FastCar" style="stroke: #A80036; stroke-width: 1.5;" width="77" x="308.5" y="115"/><ellipse cx="323.5" cy="131" fill="#ADD1B2" rx="11" ry="11" style="stroke: #A80036; stroke-width: 1.0;"/><path d="M325.8438,126.6719 C324.9063,126.2344 324.3125,126.0938 323.4375,126.0938 C320.8125,126.0938 318.8125,128.1719 318.8125,130.8906 L318.8125,132.0156 C318.8125,134.5938 320.9219,136.4844 323.8125,136.4844 C325.0313,136.4844 326.1875,136.1875 326.9375,135.6406 C327.5156,135.2344 327.8438,134.7813 327.8438,134.3906 C327.8438,133.9375 327.4531,133.5469 326.9844,133.5469 C326.7656,133.5469 326.5625,133.625 326.375,133.8125 C325.9219,134.2969 325.9219,134.2969 325.7344,134.3906 C325.3125,134.6563 324.625,134.7813 323.8594,134.7813 C321.8125,134.7813 320.5156,133.6875 320.5156,131.9844 L320.5156,130.8906 C320.5156,129.1094 321.7656,127.7969 323.5,127.7969 C324.0781,127.7969 324.6875,127.9531 325.1563,128.2031 C325.6406,128.4844 325.8125,128.7031 325.9063,129.1094 C325.9688,129.5156 326,129.6406 326.1406,129.7656 C326.2813,129.9063 326.5156,130.0156 326.7344,130.0156 C327,130.0156 327.2656,129.875 327.4375,129.6563 C327.5469,129.5 327.5781,129.3125 327.5781,128.8906 L327.5781,127.4688 C327.5781,127.0313 327.5625,126.9063 327.4688,126.75 C327.3125,126.4844 327.0313,126.3438 326.7344,126.3438 C326.4375,126.3438 326.2344,126.4375 326.0156,126.75 L325.8438,126.6719 Z "/><text fill="#000000" font-family="sans-serif" font-size="12" lengthAdjust="spacingAndGlyphs" textLength="45" x="337.5" y="135.1543">FastCar</text><line style="stroke: #A80036; stroke-width: 1.5;" x1="309.5" x2="384.5" y1="147" y2="147"/><line style="stroke: #A80036; stroke-width: 1.5;" x1="309.5" x2="384.5" y1="155" y2="155"/><!--MD5=[7366a57155d358374fe929a59e2652a4]
class SlowRocket--><rect codeLine="5" fill="#FEFECE" filter="url(#f1mm5gh1e4o1hx)" height="48" id="SlowRocket" style="stroke: #A80036; stroke-width: 1.5;" width="102" x="171" y="115"/><ellipse cx="186" cy="131" fill="#ADD1B2" rx="11" ry="11" style="stroke: #A80036; stroke-width: 1.0;"/><path d="M188.3438,126.6719 C187.4063,126.2344 186.8125,126.0938 185.9375,126.0938 C183.3125,126.0938 181.3125,128.1719 181.3125,130.8906 L181.3125,132.0156 C181.3125,134.5938 183.4219,136.4844 186.3125,136.4844 C187.5313,136.4844 188.6875,136.1875 189.4375,135.6406 C190.0156,135.2344 190.3438,134.7813 190.3438,134.3906 C190.3438,133.9375 189.9531,133.5469 189.4844,133.5469 C189.2656,133.5469 189.0625,133.625 188.875,133.8125 C188.4219,134.2969 188.4219,134.2969 188.2344,134.3906 C187.8125,134.6563 187.125,134.7813 186.3594,134.7813 C184.3125,134.7813 183.0156,133.6875 183.0156,131.9844 L183.0156,130.8906 C183.0156,129.1094 184.2656,127.7969 186,127.7969 C186.5781,127.7969 187.1875,127.9531 187.6563,128.2031 C188.1406,128.4844 188.3125,128.7031 188.4063,129.1094 C188.4688,129.5156 188.5,129.6406 188.6406,129.7656 C188.7813,129.9063 189.0156,130.0156 189.2344,130.0156 C189.5,130.0156 189.7656,129.875 189.9375,129.6563 C190.0469,129.5 190.0781,129.3125 190.0781,128.8906 L190.0781,127.4688 C190.0781,127.0313 190.0625,126.9063 189.9688,126.75 C189.8125,126.4844 189.5313,126.3438 189.2344,126.3438 C188.9375,126.3438 188.7344,126.4375 188.5156,126.75 L188.3438,126.6719 Z "/><text fill="#000000" font-family="sans-serif" font-size="12" lengthAdjust="spacingAndGlyphs" textLength="70" x="200" y="135.1543">SlowRocket</text><line style="stroke: #A80036; stroke-width: 1.5;" x1="172" x2="272" y1="147" y2="147"/><line style="stroke: #A80036; stroke-width: 1.5;" x1="172" x2="272" y1="155" y2="155"/><path d="M6,126.5 L6,151.6328 A0,0 0 0 0 6,151.6328 L136,151.6328 A0,0 0 0 0 136,151.6328 L136,144.5 L170.708,139 L136,136.5 L136,136.5 L126,126.5 L6,126.5 A0,0 0 0 0 6,126.5 " fill="#FF0000" filter="url(#f1mm5gh1e4o1hx)" style="stroke: #A80036; stroke-width: 1.0;"/><path d="M126,126.5 L126,136.5 L136,136.5 L126,126.5 " fill="#FF0000" style="stroke: #A80036; stroke-width: 1.0;"/><text fill="#000000" font-family="sans-serif" font-size="13" lengthAdjust="spacingAndGlyphs" textLength="109" x="12" y="143.5669">Has wrong name</text><!--MD5=[5ac290932a0683f2884be88be9035d33]
reverse link ICar to FastCar--><path d="M308.138,72.6133 C316.598,86.8479 325.809,102.3452 333.139,114.6784 " fill="none" id="ICar-backto-FastCar" style="stroke: #A80036; stroke-width: 1.0; stroke-dasharray: 7.0,7.0;"/><polygon fill="none" points="301.871,75.7695,297.67,55,313.906,68.6167,301.871,75.7695" style="stroke: #A80036; stroke-width: 1.0;"/><!--MD5=[d3e0b8bcf26ee551e0684237f938c6bf]
reverse link ICar to SlowRocket--><path d="M260.245,72.6133 C251.919,86.8479 242.855,102.3452 235.641,114.6784 " fill="none" id="ICar-backto-SlowRocket" style="stroke: #A80036; stroke-width: 1.0; stroke-dasharray: 7.0,7.0;"/><polygon fill="none" points="254.407,68.73,270.547,55,266.492,75.7984,254.407,68.73" style="stroke: #A80036; stroke-width: 1.0;"/><!--MD5=[2ffe0b4500d43dd530398390805b0b14]
@startuml
interface ICar{
}
class FastCar implements ICar{
}
class SlowRocket implements ICar{
}
note left of SlowRocket #red: Has wrong name
@enduml

PlantUML version 1.2020.17(Sat Sep 19 12:30:11 UTC 2020)
(GPL source distribution)
Java Runtime: Java(TM) SE Runtime Environment
JVM: Java HotSpot(TM) 64-Bit Server VM
Default Encoding: UTF-8
Language: en
Country: US
--></g></svg>