<?xml version="1.0" encoding="UTF-8" standalone="no"?><svg xmlns="http://www.w3.org/2000/svg" xmlns:xlink="http://www.w3.org/1999/xlink" contentStyleType="text/css" height="357.2px" preserveAspectRatio="none" style="width:716px;height:357px;background:#FFFFFF;" version="1.1" viewBox="0 0 716 357" width="716.4px" zoomAndPan="magnify"><defs/><g><!--MD5=[35f9dfedec39fd2e10e8a13c47ee5789]
cluster ArchUnitNET--><g id="cluster_ArchUnitNET"><path d="M3.4,29.112 L38.6,29.112 A1.5,1.5 0 0 1 39.6,30.112 L42.4,37.7682 L683.8,37.7682 A1,1 0 0 1 684.8,38.7682 L684.8,353.712 A1,1 0 0 1 683.8,354.712 L3.4,354.712 A1,1 0 0 1 2.4,353.712 L2.4,30.112 A1,1 0 0 1 3.4,29.112 " fill="none" style="stroke:#000000;stroke-width:0.6000000000000001;"/><line style="stroke:#000000;stroke-width:0.6000000000000001;" x1="2.4" x2="42.4" y1="37.7682" y2="37.7682"/><text fill="#000000" font-family="sans-serif" font-size="5.6" font-weight="bold" lengthAdjust="spacing" textLength="34.8" x="4" y="34.9815">ArchUnitNET</text></g><!--MD5=[f504221dae15b154bc64fdfab34a1f62]
cluster Loader--><g id="cluster_Loader"><path d="M567.4,212.312 L587.4,212.312 A1.5,1.5 0 0 1 588.4,213.312 L591.2,220.9683 L636.2,220.9683 A1,1 0 0 1 637.2,221.9683 L637.2,256.112 A1,1 0 0 1 636.2,257.112 L567.4,257.112 A1,1 0 0 1 566.4,256.112 L566.4,213.312 A1,1 0 0 1 567.4,212.312 " fill="none" style="stroke:#000000;stroke-width:0.6000000000000001;"/><line style="stroke:#000000;stroke-width:0.6000000000000001;" x1="566.4" x2="591.2" y1="220.9683" y2="220.9683"/><text fill="#000000" font-family="sans-serif" font-size="5.6" font-weight="bold" lengthAdjust="spacing" textLength="19.6" x="568" y="218.1815">Loader</text></g><!--MD5=[50d838338a8efd04032f85b32421b4d7]
cluster Fluent--><g id="cluster_Fluent"><path d="M13,45.912 L31.4,45.912 A1.5,1.5 0 0 1 32.4,46.912 L35.2,54.5683 L370.6,54.5683 A1,1 0 0 1 371.6,55.5683 L371.6,295.312 A1,1 0 0 1 370.6,296.312 L13,296.312 A1,1 0 0 1 12,295.312 L12,46.912 A1,1 0 0 1 13,45.912 " fill="none" style="stroke:#000000;stroke-width:0.6000000000000001;"/><line style="stroke:#000000;stroke-width:0.6000000000000001;" x1="12" x2="35.2" y1="54.5683" y2="54.5683"/><text fill="#000000" font-family="sans-serif" font-size="5.6" font-weight="bold" lengthAdjust="spacing" textLength="18" x="13.6" y="51.7815">Fluent</text></g><!--MD5=[94a2dc2ec9d8697b335698bdbfeb78e7]
cluster Syntax--><g id="cluster_Syntax"><path d="M22.6,62.712 L41.4,62.712 A1.5,1.5 0 0 1 42.4,63.712 L45.2,71.3683 L112.2,71.3683 A1,1 0 0 1 113.2,72.3683 L113.2,181.712 A1,1 0 0 1 112.2,182.712 L22.6,182.712 A1,1 0 0 1 21.6,181.712 L21.6,63.712 A1,1 0 0 1 22.6,62.712 " fill="none" style="stroke:#000000;stroke-width:0.6000000000000001;"/><line style="stroke:#000000;stroke-width:0.6000000000000001;" x1="21.6" x2="45.2" y1="71.3683" y2="71.3683"/><text fill="#000000" font-family="sans-serif" font-size="5.6" font-weight="bold" lengthAdjust="spacing" textLength="18.4" x="23.2" y="68.5815">Syntax</text></g><!--MD5=[edd80f3a113af5f4be8f509ed439bef6]
cluster Elements--><g id="cluster_Elements"><path d="M35.4,82.712 L61.8,82.712 A1.5,1.5 0 0 1 62.8,83.712 L65.6,91.3683 L99.4,91.3683 A1,1 0 0 1 100.4,92.3683 L100.4,168.912 A1,1 0 0 1 99.4,169.912 L35.4,169.912 A1,1 0 0 1 34.4,168.912 L34.4,83.712 A1,1 0 0 1 35.4,82.712 " fill="none" style="stroke:#000000;stroke-width:0.6000000000000001;"/><line style="stroke:#000000;stroke-width:0.6000000000000001;" x1="34.4" x2="65.6" y1="91.3683" y2="91.3683"/><text fill="#000000" font-family="sans-serif" font-size="5.6" font-weight="bold" lengthAdjust="spacing" textLength="26" x="36" y="88.5815">Elements</text></g><!--MD5=[121a8bf1197281ab89ed693fab589f94]
cluster Domain--><g id="cluster_Domain"><path d="M385.4,195.512 L406.6,195.512 A1.5,1.5 0 0 1 407.6,196.512 L410.4,204.1683 L549.4,204.1683 A1,1 0 0 1 550.4,205.1683 L550.4,340.912 A1,1 0 0 1 549.4,341.912 L385.4,341.912 A1,1 0 0 1 384.4,340.912 L384.4,196.512 A1,1 0 0 1 385.4,195.512 " fill="none" style="stroke:#000000;stroke-width:0.6000000000000001;"/><line style="stroke:#000000;stroke-width:0.6000000000000001;" x1="384.4" x2="410.4" y1="204.1683" y2="204.1683"/><text fill="#000000" font-family="sans-serif" font-size="5.6" font-weight="bold" lengthAdjust="spacing" textLength="20.8" x="386" y="201.3815">Domain</text></g><!--MD5=[124c38f5faf6c2e32fb9828e081ccfbf]
cluster PlantUml--><g id="cluster_PlantUml"><path d="M401.4,215.512 L426.2,215.512 A1.5,1.5 0 0 1 427.2,216.512 L430,224.1683 L490.2,224.1683 A1,1 0 0 1 491.2,225.1683 L491.2,295.312 A1,1 0 0 1 490.2,296.312 L401.4,296.312 A1,1 0 0 1 400.4,295.312 L400.4,216.512 A1,1 0 0 1 401.4,215.512 " fill="none" style="stroke:#000000;stroke-width:0.6000000000000001;"/><line style="stroke:#000000;stroke-width:0.6000000000000001;" x1="400.4" x2="430" y1="224.1683" y2="224.1683"/><text fill="#000000" font-family="sans-serif" font-size="5.6" font-weight="bold" lengthAdjust="spacing" textLength="24.4" x="402" y="221.3815">PlantUml</text></g><!--MD5=[1c9ca8f26a4da55518a0e849e052c70c]
entity ArchUnitNET.Loader.LoadTasks--><g id="elem_ArchUnitNET.Loader.LoadTasks"><rect fill="#F1F1F1" height="18.2563" rx="1" ry="1" style="stroke:#181818;stroke-width:0.20000000000000004;" width="44" x="576" y="229.112"/><rect fill="#F1F1F1" height="4" style="stroke:#181818;stroke-width:0.20000000000000004;" width="6" x="612" y="231.112"/><rect fill="#F1F1F1" height="0.8" style="stroke:#181818;stroke-width:0.20000000000000004;" width="1.6" x="611.2" y="231.912"/><rect fill="#F1F1F1" height="0.8" style="stroke:#181818;stroke-width:0.20000000000000004;" width="1.6" x="611.2" y="233.512"/><text fill="#000000" font-family="sans-serif" font-size="5.6" lengthAdjust="spacing" textLength="28" x="582" y="242.1815">LoadTasks</text></g><!--MD5=[502ee4525bc8590c0b3025b59206ac5b]
entity ArchUnitNET.Fluent.Slices--><g id="elem_ArchUnitNET.Fluent.Slices"><rect fill="#F1F1F1" height="18.2563" rx="1" ry="1" style="stroke:#181818;stroke-width:0.20000000000000004;" width="30.8" x="229.4" y="99.512"/><rect fill="#F1F1F1" height="4" style="stroke:#181818;stroke-width:0.20000000000000004;" width="6" x="252.2" y="101.512"/><rect fill="#F1F1F1" height="0.8" style="stroke:#181818;stroke-width:0.20000000000000004;" width="1.6" x="251.4" y="102.312"/><rect fill="#F1F1F1" height="0.8" style="stroke:#181818;stroke-width:0.20000000000000004;" width="1.6" x="251.4" y="103.912"/><text fill="#000000" font-family="sans-serif" font-size="5.6" lengthAdjust="spacing" textLength="14.8" x="235.4" y="112.5815">Slices</text></g><!--MD5=[1c44b256fb10fd47b89b46620d1d1f24]
entity ArchUnitNET.Fluent.Predicates--><g id="elem_ArchUnitNET.Fluent.Predicates"><rect fill="#F1F1F1" height="18.2563" rx="1" ry="1" style="stroke:#181818;stroke-width:0.20000000000000004;" width="42.8" x="74.6" y="271.512"/><rect fill="#F1F1F1" height="4" style="stroke:#181818;stroke-width:0.20000000000000004;" width="6" x="109.4" y="273.512"/><rect fill="#F1F1F1" height="0.8" style="stroke:#181818;stroke-width:0.20000000000000004;" width="1.6" x="108.6" y="274.312"/><rect fill="#F1F1F1" height="0.8" style="stroke:#181818;stroke-width:0.20000000000000004;" width="1.6" x="108.6" y="275.912"/><text fill="#000000" font-family="sans-serif" font-size="5.6" lengthAdjust="spacing" textLength="26.8" x="80.6" y="284.5815">Predicates</text></g><!--MD5=[dc15977a09b42d1e128dc4eb6141bcd2]
entity ArchUnitNET.Fluent.PlantUml--><g id="elem_ArchUnitNET.Fluent.PlantUml"><rect fill="#F1F1F1" height="18.2563" rx="1" ry="1" style="stroke:#181818;stroke-width:0.20000000000000004;" width="38" x="119.8" y="99.512"/><rect fill="#F1F1F1" height="4" style="stroke:#181818;stroke-width:0.20000000000000004;" width="6" x="149.8" y="101.512"/><rect fill="#F1F1F1" height="0.8" style="stroke:#181818;stroke-width:0.20000000000000004;" width="1.6" x="149" y="102.312"/><rect fill="#F1F1F1" height="0.8" style="stroke:#181818;stroke-width:0.20000000000000004;" width="1.6" x="149" y="103.912"/><text fill="#000000" font-family="sans-serif" font-size="5.6" lengthAdjust="spacing" textLength="22" x="125.8" y="112.5815">PlantUml</text></g><!--MD5=[2a29295b13477a201d03d9465890fca0]
entity ArchUnitNET.Fluent.Freeze--><g id="elem_ArchUnitNET.Fluent.Freeze"><rect fill="#F1F1F1" height="18.2563" rx="1" ry="1" style="stroke:#181818;stroke-width:0.20000000000000004;" width="33.6" x="331.6" y="99.512"/><rect fill="#F1F1F1" height="4" style="stroke:#181818;stroke-width:0.20000000000000004;" width="6" x="357.2" y="101.512"/><rect fill="#F1F1F1" height="0.8" style="stroke:#181818;stroke-width:0.20000000000000004;" width="1.6" x="356.4" y="102.312"/><rect fill="#F1F1F1" height="0.8" style="stroke:#181818;stroke-width:0.20000000000000004;" width="1.6" x="356.4" y="103.912"/><text fill="#000000" font-family="sans-serif" font-size="5.6" lengthAdjust="spacing" textLength="17.6" x="337.6" y="112.5815">Freeze</text></g><!--MD5=[82fbb12b020fc7aa4d6912daca5c0beb]
entity ArchUnitNET.Fluent.Extensions--><g id="elem_ArchUnitNET.Fluent.Extensions"><rect fill="#F1F1F1" height="18.2563" rx="1" ry="1" style="stroke:#181818;stroke-width:0.20000000000000004;" width="43.2" x="172" y="99.512"/><rect fill="#F1F1F1" height="4" style="stroke:#181818;stroke-width:0.20000000000000004;" width="6" x="207.2" y="101.512"/><rect fill="#F1F1F1" height="0.8" style="stroke:#181818;stroke-width:0.20000000000000004;" width="1.6" x="206.4" y="102.312"/><rect fill="#F1F1F1" height="0.8" style="stroke:#181818;stroke-width:0.20000000000000004;" width="1.6" x="206.4" y="103.912"/><text fill="#000000" font-family="sans-serif" font-size="5.6" lengthAdjust="spacing" textLength="27.2" x="178" y="112.5815">Extensions</text></g><!--MD5=[f2d02300251a951b350ed54409c2549b]
entity ArchUnitNET.Fluent.Exceptions--><g id="elem_ArchUnitNET.Fluent.Exceptions"><rect fill="#F1F1F1" height="18.2563" rx="1" ry="1" style="stroke:#181818;stroke-width:0.20000000000000004;" width="43.2" x="274.4" y="99.512"/><rect fill="#F1F1F1" height="4" style="stroke:#181818;stroke-width:0.20000000000000004;" width="6" x="309.6" y="101.512"/><rect fill="#F1F1F1" height="0.8" style="stroke:#181818;stroke-width:0.20000000000000004;" width="1.6" x="308.8" y="102.312"/><rect fill="#F1F1F1" height="0.8" style="stroke:#181818;stroke-width:0.20000000000000004;" width="1.6" x="308.8" y="103.912"/><text fill="#000000" font-family="sans-serif" font-size="5.6" lengthAdjust="spacing" textLength="27.2" x="280.4" y="112.5815">Exceptions</text></g><!--MD5=[0920d5a70fa9b0c1b5b5731d18349e65]
entity ArchUnitNET.Fluent.Conditions--><g id="elem_ArchUnitNET.Fluent.Conditions"><rect fill="#F1F1F1" height="18.2563" rx="1" ry="1" style="stroke:#181818;stroke-width:0.20000000000000004;" width="42.8" x="89.4" y="229.112"/><rect fill="#F1F1F1" height="4" style="stroke:#181818;stroke-width:0.20000000000000004;" width="6" x="124.2" y="231.112"/><rect fill="#F1F1F1" height="0.8" style="stroke:#181818;stroke-width:0.20000000000000004;" width="1.6" x="123.4" y="231.912"/><rect fill="#F1F1F1" height="0.8" style="stroke:#181818;stroke-width:0.20000000000000004;" width="1.6" x="123.4" y="233.512"/><text fill="#000000" font-family="sans-serif" font-size="5.6" lengthAdjust="spacing" textLength="26.8" x="95.4" y="242.1815">Conditions</text></g><!--MD5=[cca2a172eccfe3841aac1c82be541515]
entity ArchUnitNET.Fluent.Syntax.Elements.Types--><g id="elem_ArchUnitNET.Fluent.Syntax.Elements.Types"><rect fill="#F1F1F1" height="18.2563" rx="1" ry="1" style="stroke:#181818;stroke-width:0.20000000000000004;" width="31.6" x="59" y="141.912"/><rect fill="#F1F1F1" height="4" style="stroke:#181818;stroke-width:0.20000000000000004;" width="6" x="82.6" y="143.912"/><rect fill="#F1F1F1" height="0.8" style="stroke:#181818;stroke-width:0.20000000000000004;" width="1.6" x="81.8" y="144.712"/><rect fill="#F1F1F1" height="0.8" style="stroke:#181818;stroke-width:0.20000000000000004;" width="1.6" x="81.8" y="146.312"/><text fill="#000000" font-family="sans-serif" font-size="5.6" lengthAdjust="spacing" textLength="15.6" x="65" y="154.9815">Types</text></g><!--MD5=[39e99beaf4d957e2a6cc97c2e565cc9c]
entity ArchUnitNET.Fluent.Syntax.Elements.Members--><g id="elem_ArchUnitNET.Fluent.Syntax.Elements.Members"><rect fill="#F1F1F1" height="18.2563" rx="1" ry="1" style="stroke:#181818;stroke-width:0.20000000000000004;" width="39.2" x="51.6" y="99.512"/><rect fill="#F1F1F1" height="4" style="stroke:#181818;stroke-width:0.20000000000000004;" width="6" x="82.8" y="101.512"/><rect fill="#F1F1F1" height="0.8" style="stroke:#181818;stroke-width:0.20000000000000004;" width="1.6" x="82" y="102.312"/><rect fill="#F1F1F1" height="0.8" style="stroke:#181818;stroke-width:0.20000000000000004;" width="1.6" x="82" y="103.912"/><text fill="#000000" font-family="sans-serif" font-size="5.6" lengthAdjust="spacing" textLength="23.2" x="57.6" y="112.5815">Members</text></g><!--MD5=[012dc235bb2353d05d86e17789058605]
entity ArchUnitNET.Domain.Extensions--><g id="elem_ArchUnitNET.Domain.Extensions"><rect fill="#F1F1F1" height="18.2563" rx="1" ry="1" style="stroke:#181818;stroke-width:0.20000000000000004;" width="43.2" x="497.6" y="271.512"/><rect fill="#F1F1F1" height="4" style="stroke:#181818;stroke-width:0.20000000000000004;" width="6" x="532.8" y="273.512"/><rect fill="#F1F1F1" height="0.8" style="stroke:#181818;stroke-width:0.20000000000000004;" width="1.6" x="532" y="274.312"/><rect fill="#F1F1F1" height="0.8" style="stroke:#181818;stroke-width:0.20000000000000004;" width="1.6" x="532" y="275.912"/><text fill="#000000" font-family="sans-serif" font-size="5.6" lengthAdjust="spacing" textLength="27.2" x="503.6" y="284.5815">Extensions</text></g><!--MD5=[577007689b33d32a9979b6b47512ebbb]
entity ArchUnitNET.Domain.Exceptions--><g id="elem_ArchUnitNET.Domain.Exceptions"><rect fill="#F1F1F1" height="18.2563" rx="1" ry="1" style="stroke:#181818;stroke-width:0.20000000000000004;" width="43.2" x="497.6" y="313.912"/><rect fill="#F1F1F1" height="4" style="stroke:#181818;stroke-width:0.20000000000000004;" width="6" x="532.8" y="315.912"/><rect fill="#F1F1F1" height="0.8" style="stroke:#181818;stroke-width:0.20000000000000004;" width="1.6" x="532" y="316.712"/><rect fill="#F1F1F1" height="0.8" style="stroke:#181818;stroke-width:0.20000000000000004;" width="1.6" x="532" y="318.312"/><text fill="#000000" font-family="sans-serif" font-size="5.6" lengthAdjust="spacing" textLength="27.2" x="503.6" y="326.9815">Exceptions</text></g><!--MD5=[331e1cc4ba5d828a21346b659bfbbe72]
entity ArchUnitNET.Domain.Dependencies--><g id="elem_ArchUnitNET.Domain.Dependencies"><rect fill="#F1F1F1" height="18.2563" rx="1" ry="1" style="stroke:#181818;stroke-width:0.20000000000000004;" width="52.4" x="431" y="313.912"/><rect fill="#F1F1F1" height="4" style="stroke:#181818;stroke-width:0.20000000000000004;" width="6" x="475.4" y="315.912"/><rect fill="#F1F1F1" height="0.8" style="stroke:#181818;stroke-width:0.20000000000000004;" width="1.6" x="474.6" y="316.712"/><rect fill="#F1F1F1" height="0.8" style="stroke:#181818;stroke-width:0.20000000000000004;" width="1.6" x="474.6" y="318.312"/><text fill="#000000" font-family="sans-serif" font-size="5.6" lengthAdjust="spacing" textLength="36.4" x="437" y="326.9815">Dependencies</text></g><!--MD5=[e5ae0ac6ad56daf11d73811f245a4c51]
entity ArchUnitNET.Domain.PlantUml.Import--><g id="elem_ArchUnitNET.Domain.PlantUml.Import"><rect fill="#F1F1F1" height="18.2563" rx="1" ry="1" style="stroke:#181818;stroke-width:0.20000000000000004;" width="31.6" x="407" y="229.112"/><rect fill="#F1F1F1" height="4" style="stroke:#181818;stroke-width:0.20000000000000004;" width="6" x="430.6" y="231.112"/><rect fill="#F1F1F1" height="0.8" style="stroke:#181818;stroke-width:0.20000000000000004;" width="1.6" x="429.8" y="231.912"/><rect fill="#F1F1F1" height="0.8" style="stroke:#181818;stroke-width:0.20000000000000004;" width="1.6" x="429.8" y="233.512"/><text fill="#000000" font-family="sans-serif" font-size="5.6" lengthAdjust="spacing" textLength="15.6" x="413" y="242.1815">Import</text></g><!--MD5=[43e6274b1a3fe0323fe04a7bdfecfd1e]
entity ArchUnitNET.Domain.PlantUml.Export--><g id="elem_ArchUnitNET.Domain.PlantUml.Export"><rect fill="#F1F1F1" height="18.2563" rx="1" ry="1" style="stroke:#181818;stroke-width:0.20000000000000004;" width="32" x="452.8" y="229.112"/><rect fill="#F1F1F1" height="4" style="stroke:#181818;stroke-width:0.20000000000000004;" width="6" x="476.8" y="231.112"/><rect fill="#F1F1F1" height="0.8" style="stroke:#181818;stroke-width:0.20000000000000004;" width="1.6" x="476" y="231.912"/><rect fill="#F1F1F1" height="0.8" style="stroke:#181818;stroke-width:0.20000000000000004;" width="1.6" x="476" y="233.512"/><text fill="#000000" font-family="sans-serif" font-size="5.6" lengthAdjust="spacing" textLength="16" x="458.8" y="242.1815">Export</text></g><!--MD5=[72e82cf5caf8888f15e82f4c78e5dc24]
entity ArchUnitNET.Domain.PlantUml.Exceptions--><g id="elem_ArchUnitNET.Domain.PlantUml.Exceptions"><rect fill="#F1F1F1" height="18.2563" rx="1" ry="1" style="stroke:#181818;stroke-width:0.20000000000000004;" width="43.2" x="408.8" y="271.512"/><rect fill="#F1F1F1" height="4" style="stroke:#181818;stroke-width:0.20000000000000004;" width="6" x="444" y="273.512"/><rect fill="#F1F1F1" height="0.8" style="stroke:#181818;stroke-width:0.20000000000000004;" width="1.6" x="443.2" y="274.312"/><rect fill="#F1F1F1" height="0.8" style="stroke:#181818;stroke-width:0.20000000000000004;" width="1.6" x="443.2" y="275.912"/><text fill="#000000" font-family="sans-serif" font-size="5.6" lengthAdjust="spacing" textLength="27.2" x="414.8" y="284.5815">Exceptions</text></g><!--MD5=[bb318d81a0c7cd9e65ea43a3ef58ad3d]
link Loader to ArchUnitNET.Domain.Exceptions--><g id="link_Loader_ArchUnitNET.Domain.Exceptions"><path d="M629.7559,257.1414 C629.7219,257.2246 629.6878,257.3077 629.6533,257.3907 C629.5844,257.5566 629.5145,257.7223 629.4435,257.8874 C629.1595,258.548 628.8584,259.2014 628.5393,259.843 C627.901,261.126 627.1905,262.3615 626.4,263.512 C611.696,284.908 603.016,286.768 580.4,299.512 C568.608,306.156 554.54,311.64 542.868,315.604 " fill="none" id="Loader-to-ArchUnitNET.Domain.Exceptions" style="stroke:#0000FF;stroke-width:0.4000000000000001;"/><polygon fill="#0000FF" points="540.868,316.28,544.7906,316.6453,542.7631,315.6407,543.7677,313.6132,540.868,316.28" style="stroke:#0000FF;stroke-width:0.4000000000000001;"/></g><!--MD5=[510c873577d0d54080579917e5e5e0cd]
link ArchUnitNET.Loader.LoadTasks to ArchUnitNET.Domain.Extensions--><g id="link_ArchUnitNET.Loader.LoadTasks_ArchUnitNET.Domain.Extensions"><path d="M581.288,247.536 C570.164,253.408 555.372,261.216 543.02,267.736 " fill="none" id="ArchUnitNET.Loader.LoadTasks-to-ArchUnitNET.Domain.Extensions" style="stroke:#181818;stroke-width:0.4000000000000001;"/><polygon fill="none" points="544.268,270.244,535.888,271.504,541.656,265.292,544.268,270.244" style="stroke:#181818;stroke-width:0.4000000000000001;"/></g><!--MD5=[d89e23286f2150a150510400339bea6a]
link ArchUnitNET.Loader.LoadTasks to ArchUnitNET.Domain.Dependencies--><g id="link_ArchUnitNET.Loader.LoadTasks_ArchUnitNET.Domain.Dependencies"><path d="M593.212,247.568 C585.508,260.948 569.072,286.168 548,299.512 C527.712,312.36 517.904,308.28 491.212,313.984 " fill="none" id="ArchUnitNET.Loader.LoadTasks-to-ArchUnitNET.Domain.Dependencies" style="stroke:#181818;stroke-width:0.4000000000000001;"/><polygon fill="none" points="491.852,316.708,483.424,315.82,490.568,311.256,491.852,316.708" style="stroke:#181818;stroke-width:0.4000000000000001;"/></g><!--MD5=[4e0451935fda39e538a1fff258e615c5]
link Elements to ArchUnitNET.Fluent.Exceptions--><g id="link_Elements_ArchUnitNET.Fluent.Exceptions"><path d="M34.3919,95.4767 C34.3456,95.248 34.2992,95.017 34.2529,94.7838 C32.77,87.3198 31.2855,77.56 30.96,67.293 C30.309,46.759 34.294,24.196 52.2,13.912 C72.24,2.4 240.16,2.4 260.2,13.912 C289.624,30.812 295.032,76.06 295.912,97.344 " fill="none" id="Elements-to-ArchUnitNET.Fluent.Exceptions" style="stroke:#0000FF;stroke-width:0.4000000000000001;"/><polygon fill="#0000FF" points="295.984,99.452,297.4593,95.7991,295.9153,97.4532,294.2612,95.9091,295.984,99.452" style="stroke:#0000FF;stroke-width:0.4000000000000001;"/></g><!--MD5=[fe26a4b5d83e50fe9b28c196508e7a44]
link ArchUnitNET.Fluent.Syntax.Elements.Types to ArchUnitNET.Fluent.Predicates--><g id="link_ArchUnitNET.Fluent.Syntax.Elements.Types_ArchUnitNET.Fluent.Predicates"><path d="M73.656,160.328 C71.496,179.76 68.224,227.412 82.4,263.512 C82.536,263.86 82.684,264.208 82.84,264.556 " fill="none" id="ArchUnitNET.Fluent.Syntax.Elements.Types-to-ArchUnitNET.Fluent.Predicates" style="stroke:#181818;stroke-width:0.4000000000000001;"/><polygon fill="none" points="85.236,263.104,87.112,271.372,80.492,266.076,85.236,263.104" style="stroke:#181818;stroke-width:0.4000000000000001;"/></g><!--MD5=[69b02b33482c3fb88bc8b6bda201c9f1]
link ArchUnitNET.Fluent.Syntax.Elements.Types to ArchUnitNET.Fluent.Conditions--><g id="link_ArchUnitNET.Fluent.Syntax.Elements.Types_ArchUnitNET.Fluent.Conditions"><path d="M78.516,160.432 C84.528,174.86 96.472,203.524 104.024,221.652 " fill="none" id="ArchUnitNET.Fluent.Syntax.Elements.Types-to-ArchUnitNET.Fluent.Conditions" style="stroke:#181818;stroke-width:0.4000000000000001;"/><polygon fill="none" points="106.612,220.58,107.104,229.04,101.44,222.732,106.612,220.58" style="stroke:#181818;stroke-width:0.4000000000000001;"/></g><!--MD5=[7920149c72afcfc5f09c8e26fbf95864]
link ArchUnitNET.Fluent.Syntax.Elements.Types to ArchUnitNET.Domain.PlantUml.Import--><g id="link_ArchUnitNET.Fluent.Syntax.Elements.Types_ArchUnitNET.Domain.PlantUml.Import"><path d="M90.68,152.336 C153.272,155.712 380.676,169.264 405.6,189.112 C415.248,196.796 419.496,210.276 421.36,221.12 " fill="none" id="ArchUnitNET.Fluent.Syntax.Elements.Types-to-ArchUnitNET.Domain.PlantUml.Import" style="stroke:#181818;stroke-width:0.4000000000000001;"/><polygon fill="none" points="424.14,220.8,422.4,229.096,418.588,221.528,424.14,220.8" style="stroke:#181818;stroke-width:0.4000000000000001;"/></g><!--MD5=[17bb57096cd61f983266931cdd335718]
link ArchUnitNET.Fluent.Syntax.Elements.Types to ArchUnitNET.Domain.Extensions--><g id="link_ArchUnitNET.Fluent.Syntax.Elements.Types_ArchUnitNET.Domain.Extensions"><path d="M90.632,152.932 C123.024,156.228 198.808,165.96 258,189.112 C317.572,212.412 320.244,244.124 381.2,263.512 C425.54,277.616 441.432,263.872 489.472,271.528 " fill="none" id="ArchUnitNET.Fluent.Syntax.Elements.Types-to-ArchUnitNET.Domain.Extensions" style="stroke:#181818;stroke-width:0.4000000000000001;"/><polygon fill="none" points="490.08,268.792,497.468,272.944,489.1,274.304,490.08,268.792" style="stroke:#181818;stroke-width:0.4000000000000001;"/></g><!--MD5=[7076db8274d6faad35c8bb37223eb62d]
link ArchUnitNET.Fluent.Syntax.Elements.Types to ArchUnitNET.Domain.Exceptions--><g id="link_ArchUnitNET.Fluent.Syntax.Elements.Types_ArchUnitNET.Domain.Exceptions"><path d="M65.66,160.444 C59.108,167.52 50.832,178.032 47.2,189.112 C39.56,212.424 30.136,281.884 47.2,299.512 C63.424,316.272 424.42,310.588 489.44,314.636 " fill="none" id="ArchUnitNET.Fluent.Syntax.Elements.Types-to-ArchUnitNET.Domain.Exceptions" style="stroke:#181818;stroke-width:0.4000000000000001;"/><polygon fill="none" points="489.796,311.856,497.488,315.416,489.252,317.432,489.796,311.856" style="stroke:#181818;stroke-width:0.4000000000000001;"/></g><!--MD5=[0dff810c6dc6413d47e63dcb952dde0c]
link ArchUnitNET.Fluent.Syntax.Elements.Types to ArchUnitNET.Domain.Dependencies--><g id="link_ArchUnitNET.Fluent.Syntax.Elements.Types_ArchUnitNET.Domain.Dependencies"><path d="M63.516,160.36 C55.712,167.244 45.976,177.548 41.6,189.112 C24.24,235.004 7.884,263.864 41.6,299.512 C54.628,313.288 325.644,320.068 422.868,322.064 " fill="none" id="ArchUnitNET.Fluent.Syntax.Elements.Types-to-ArchUnitNET.Domain.Dependencies" style="stroke:#181818;stroke-width:0.4000000000000001;"/><polygon fill="none" points="422.972,319.268,430.912,322.228,422.86,324.868,422.972,319.268" style="stroke:#181818;stroke-width:0.4000000000000001;"/></g><!--MD5=[38a43cfa3318bb90b8bf590eebb0e536]
link ArchUnitNET.Fluent.Syntax.Elements.Members to ArchUnitNET.Fluent.Syntax.Elements.Types--><g id="link_ArchUnitNET.Fluent.Syntax.Elements.Members_ArchUnitNET.Fluent.Syntax.Elements.Types"><path d="M71.964,117.936 C72.364,122.568 72.868,128.404 73.34,133.86 " fill="none" id="ArchUnitNET.Fluent.Syntax.Elements.Members-to-ArchUnitNET.Fluent.Syntax.Elements.Types" style="stroke:#181818;stroke-width:0.4000000000000001;"/><polygon fill="none" points="76.136,133.692,74.036,141.904,70.56,134.172,76.136,133.692" style="stroke:#181818;stroke-width:0.4000000000000001;"/></g><!--MD5=[e961df608ff0b77e6353c4d1b4a2ab7d]
link ArchUnitNET.Fluent.Syntax.Elements.Members to ArchUnitNET.Fluent.Predicates--><g id="link_ArchUnitNET.Fluent.Syntax.Elements.Members_ArchUnitNET.Fluent.Predicates"><path d="M64.24,117.992 C59.776,124.28 54.384,133.124 52,141.912 C46.884,160.784 49.92,166.468 52,185.912 C55.756,221 48.432,234.696 68.8,263.512 C69.448,264.428 70.16,265.304 70.928,266.136 " fill="none" id="ArchUnitNET.Fluent.Syntax.Elements.Members-to-ArchUnitNET.Fluent.Predicates" style="stroke:#181818;stroke-width:0.4000000000000001;"/><polygon fill="none" points="72.828,264.08,77.064,271.424,69.176,268.324,72.828,264.08" style="stroke:#181818;stroke-width:0.4000000000000001;"/></g><!--MD5=[9f4a25f35d320924fe652de30b02fd7a]
link ArchUnitNET.Fluent.Syntax.Elements.Members to ArchUnitNET.Fluent.Conditions--><g id="link_ArchUnitNET.Fluent.Syntax.Elements.Members_ArchUnitNET.Fluent.Conditions"><path d="M80.568,117.96 C86.46,124.096 93.664,132.784 97.6,141.912 C108.808,167.9 110.984,201.192 111.16,220.964 " fill="none" id="ArchUnitNET.Fluent.Syntax.Elements.Members-to-ArchUnitNET.Fluent.Conditions" style="stroke:#181818;stroke-width:0.4000000000000001;"/><polygon fill="none" points="113.96,221.032,111.128,229.02,108.36,221.008,113.96,221.032" style="stroke:#181818;stroke-width:0.4000000000000001;"/></g><!--MD5=[730b7dd35adac50e38857e6a433fa38b]
link ArchUnitNET.Fluent.Syntax.Elements.Members to ArchUnitNET.Domain.Extensions--><g id="link_ArchUnitNET.Fluent.Syntax.Elements.Members_ArchUnitNET.Domain.Extensions"><path d="M90.88,117.512 C91.388,117.656 91.896,117.788 92.4,117.912 C213.388,147.468 250.356,113.42 371.6,141.912 C427.228,154.984 455.972,144.116 491.2,189.112 C511.768,215.38 485.888,233.868 501.2,263.512 C501.48,264.052 501.784,264.588 502.108,265.112 " fill="none" id="ArchUnitNET.Fluent.Syntax.Elements.Members-to-ArchUnitNET.Domain.Extensions" style="stroke:#181818;stroke-width:0.4000000000000001;"/><polygon fill="none" points="504.324,263.392,507.228,271.356,499.992,266.944,504.324,263.392" style="stroke:#181818;stroke-width:0.4000000000000001;"/></g><!--MD5=[9220f6283fd448dbbb902bc7abc7d6f9]
link ArchUnitNET.Fluent.Syntax.Elements.Members to ArchUnitNET.Domain.Exceptions--><g id="link_ArchUnitNET.Fluent.Syntax.Elements.Members_ArchUnitNET.Domain.Exceptions"><path d="M90.88,117.524 C91.388,117.664 91.896,117.792 92.4,117.912 C211.916,146.132 563.816,93.12 640.4,189.112 C672.656,229.544 648.452,273.752 603.6,299.512 C586.728,309.204 565.616,315.004 548.732,318.38 " fill="none" id="ArchUnitNET.Fluent.Syntax.Elements.Members-to-ArchUnitNET.Domain.Exceptions" style="stroke:#181818;stroke-width:0.4000000000000001;"/><polygon fill="none" points="549.196,321.144,540.816,319.852,548.172,315.636,549.196,321.144" style="stroke:#181818;stroke-width:0.4000000000000001;"/></g><!--MD5=[75926c25e4ceec0ea328d8f28fb86c2a]
link ArchUnitNET.Fluent.Slices to ArchUnitNET.Domain.Dependencies--><g id="link_ArchUnitNET.Fluent.Slices_ArchUnitNET.Domain.Dependencies"><path d="M260.304,115.816 C262.712,116.648 265.196,117.388 267.6,117.912 C309.404,127.056 622.696,110.724 652,141.912 C667.952,158.892 650.488,249.796 640.4,263.512 C600.284,318.04 562.016,299.84 491.42,313.952 " fill="none" id="ArchUnitNET.Fluent.Slices-to-ArchUnitNET.Domain.Dependencies" style="stroke:#181818;stroke-width:0.4000000000000001;"/><polygon fill="none" points="491.98,316.696,483.572,315.628,490.808,311.216,491.98,316.696" style="stroke:#181818;stroke-width:0.4000000000000001;"/></g><!--MD5=[68f615bd430555e732b0e4ecb9b70156]
link ArchUnitNET.Fluent.Predicates to Domain--><g id="link_ArchUnitNET.Fluent.Predicates_Domain"><path d="M117.504,280.108 C178.544,279.38 349.892,276.212 371.6,263.512 C377.084,260.304 381.009,254.385 383.599,249.134 C383.7609,248.8058 383.9175,248.4802 384.069,248.1581 C384.1448,247.997 384.2192,247.8368 384.2924,247.6776 C384.3107,247.6377 384.3289,247.598 384.3471,247.5583 " fill="none" id="ArchUnitNET.Fluent.Predicates-to-Domain" style="stroke:#FF0000;stroke-width:0.4000000000000001;"/><polygon fill="#FF0000" points="384.3471,247.5583,381.3957,250.1678,383.5159,249.3774,384.3064,251.4976,384.3471,247.5583" style="stroke:#FF0000;stroke-width:0.4000000000000001;"/></g><!--MD5=[f743070d9ecbe8d9df0ea574eb8d7719]
link ArchUnitNET.Fluent.PlantUml to ArchUnitNET.Domain.PlantUml.Export--><g id="link_ArchUnitNET.Fluent.PlantUml_ArchUnitNET.Domain.PlantUml.Export"><path d="M157.916,115.772 C160.228,116.52 162.56,117.252 164.8,117.912 C288.272,154.4 346.112,107.388 445.6,189.112 C455.496,197.24 461.436,210.576 464.824,221.252 " fill="none" id="ArchUnitNET.Fluent.PlantUml-to-ArchUnitNET.Domain.PlantUml.Export" style="stroke:#181818;stroke-width:0.4000000000000001;"/><polygon fill="none" points="467.556,220.64,467.02,229.096,462.164,222.148,467.556,220.64" style="stroke:#181818;stroke-width:0.4000000000000001;"/></g><!--MD5=[00dafc5ffc21d645edf8ade31f7b3057]
link ArchUnitNET.Fluent.Freeze to ArchUnitNET.Domain.Exceptions--><g id="link_ArchUnitNET.Fluent.Freeze_ArchUnitNET.Domain.Exceptions"><path d="M365.26,109.556 C428.144,111.388 646.432,119.336 666.8,141.912 C713.724,193.916 712.32,246.276 666.8,299.512 C651.94,316.892 587.536,321.336 548.88,322.42 " fill="none" id="ArchUnitNET.Fluent.Freeze-to-ArchUnitNET.Domain.Exceptions" style="stroke:#181818;stroke-width:0.4000000000000001;"/><polygon fill="none" points="548.88,325.22,540.816,322.608,548.752,319.62,548.88,325.22" style="stroke:#181818;stroke-width:0.4000000000000001;"/></g><!--MD5=[b400c583940db8b7ceab522ec8d0273c]
link ArchUnitNET.Fluent.Extensions to ArchUnitNET.Domain.Extensions--><g id="link_ArchUnitNET.Fluent.Extensions_ArchUnitNET.Domain.Extensions"><path d="M215.2,116.124 C217.616,116.784 220.052,117.4 222.4,117.912 C348.008,145.38 424.128,87.412 502.8,189.112 C519.444,210.628 521.256,243.512 520.568,263.36 " fill="none" id="ArchUnitNET.Fluent.Extensions-to-ArchUnitNET.Domain.Extensions" style="stroke:#181818;stroke-width:0.4000000000000001;"/><polygon fill="none" points="523.356,263.64,520.12,271.472,517.764,263.328,523.356,263.64" style="stroke:#181818;stroke-width:0.4000000000000001;"/></g><!--MD5=[8e10e0cae93a58ab20ced124c4597375]
link ArchUnitNET.Fluent.Conditions to ArchUnitNET.Fluent.Predicates--><g id="link_ArchUnitNET.Fluent.Conditions_ArchUnitNET.Fluent.Predicates"><path d="M107.66,247.536 C105.972,252.276 103.836,258.28 101.856,263.852 " fill="none" id="ArchUnitNET.Fluent.Conditions-to-ArchUnitNET.Fluent.Predicates" style="stroke:#181818;stroke-width:0.4000000000000001;"/><polygon fill="none" points="104.452,264.904,99.136,271.504,99.176,263.028,104.452,264.904" style="stroke:#181818;stroke-width:0.4000000000000001;"/></g><!--MD5=[d34e703a01c06d0124a5b11c14deb895]
link ArchUnitNET.Fluent.Conditions to Domain--><g id="link_ArchUnitNET.Fluent.Conditions_Domain"><path d="M132.288,238.312 C174.8,238.312 217.311,238.312 259.8215,238.312 C281.0768,238.312 302.3319,238.312 323.5869,238.312 C334.2145,238.312 344.842,238.312 355.4695,238.312 C360.7832,238.312 366.097,238.312 371.4107,238.312 C374.0676,238.312 376.7245,238.312 379.3814,238.312 C380.7098,238.312 382.0382,238.312 383.3667,238.312 C383.6988,238.312 384.0309,238.312 384.363,238.312 " fill="none" id="ArchUnitNET.Fluent.Conditions-to-Domain" style="stroke:#FF0000;stroke-width:0.4000000000000001;"/><polygon fill="#FF0000" points="384.363,238.312,380.763,236.712,382.363,238.312,380.763,239.912,384.363,238.312" style="stroke:#FF0000;stroke-width:0.4000000000000001;"/></g><!--MD5=[416eefd4cd41b8b522c78e95a6352f25]
link ArchUnitNET.Domain.PlantUml.Import to ArchUnitNET.Domain.PlantUml.Exceptions--><g id="link_ArchUnitNET.Domain.PlantUml.Import_ArchUnitNET.Domain.PlantUml.Exceptions"><path d="M424.412,247.536 C425.26,252.168 426.324,258.004 427.32,263.46 " fill="none" id="ArchUnitNET.Domain.PlantUml.Import-to-ArchUnitNET.Domain.PlantUml.Exceptions" style="stroke:#181818;stroke-width:0.4000000000000001;"/><polygon fill="none" points="430.108,263.128,428.792,271.504,424.6,264.136,430.108,263.128" style="stroke:#181818;stroke-width:0.4000000000000001;"/></g><!--MD5=[2adc4dbbf51f690876d8ea8e2e39936a]
link ArchUnitNET.Domain.PlantUml.Import to ArchUnitNET.Domain.Extensions--><g id="link_ArchUnitNET.Domain.PlantUml.Import_ArchUnitNET.Domain.Extensions"><path d="M428.76,247.552 C432.936,253.028 439.004,259.716 446,263.512 C462.008,272.192 469.66,267.888 489.744,271.52 " fill="none" id="ArchUnitNET.Domain.PlantUml.Import-to-ArchUnitNET.Domain.Extensions" style="stroke:#181818;stroke-width:0.4000000000000001;"/><polygon fill="none" points="490.344,268.784,497.572,273.212,489.16,274.256,490.344,268.784" style="stroke:#181818;stroke-width:0.4000000000000001;"/></g><!--MD5=[0e2fb85b74981f664c8875bbf9942a31]
link ArchUnitNET.Domain.PlantUml.Export to ArchUnitNET.Domain.PlantUml.Exceptions--><g id="link_ArchUnitNET.Domain.PlantUml.Export_ArchUnitNET.Domain.PlantUml.Exceptions"><path d="M460.656,247.536 C455.82,252.772 449.564,259.552 443.996,265.584 " fill="none" id="ArchUnitNET.Domain.PlantUml.Export-to-ArchUnitNET.Domain.PlantUml.Exceptions" style="stroke:#181818;stroke-width:0.4000000000000001;"/><polygon fill="none" points="446.016,267.524,438.532,271.504,441.9,263.724,446.016,267.524" style="stroke:#181818;stroke-width:0.4000000000000001;"/></g><!--MD5=[dfb1966f7c4a274353642c0c7cb6ff7d]
link ArchUnitNET.Domain.PlantUml.Export to ArchUnitNET.Domain.Extensions--><g id="link_ArchUnitNET.Domain.PlantUml.Export_ArchUnitNET.Domain.Extensions"><path d="M473.624,247.556 C476.752,252.696 481.212,259.02 486.4,263.512 C487.924,264.832 489.568,266.08 491.284,267.256 " fill="none" id="ArchUnitNET.Domain.PlantUml.Export-to-ArchUnitNET.Domain.Extensions" style="stroke:#181818;stroke-width:0.4000000000000001;"/><polygon fill="none" points="492.748,264.868,498.124,271.424,489.832,269.652,492.748,264.868" style="stroke:#181818;stroke-width:0.4000000000000001;"/></g><!--MD5=[9dcbea19e265d0d5674f96c20e17bf0a]
link ArchUnitNET.Domain.PlantUml.Export to ArchUnitNET.Domain.Dependencies--><g id="link_ArchUnitNET.Domain.PlantUml.Export_ArchUnitNET.Domain.Dependencies"><path d="M467.58,247.544 C465.676,261.344 461.956,288.264 459.528,305.86 " fill="none" id="ArchUnitNET.Domain.PlantUml.Export-to-ArchUnitNET.Domain.Dependencies" style="stroke:#181818;stroke-width:0.4000000000000001;"/><polygon fill="none" points="462.288,306.332,458.42,313.872,456.74,305.564,462.288,306.332" style="stroke:#181818;stroke-width:0.4000000000000001;"/></g><!--MD5=[ae9ed8db9c5097acf6ac176032976ba7]
link ArchUnitNET.Domain.Extensions to ArchUnitNET.Domain.Exceptions--><g id="link_ArchUnitNET.Domain.Extensions_ArchUnitNET.Domain.Exceptions"><path d="M519.2,289.936 C519.2,294.568 519.2,300.404 519.2,305.86 " fill="none" id="ArchUnitNET.Domain.Extensions-to-ArchUnitNET.Domain.Exceptions" style="stroke:#181818;stroke-width:0.4000000000000001;"/><polygon fill="none" points="522,305.904,519.2,313.904,516.4,305.904,522,305.904" style="stroke:#181818;stroke-width:0.4000000000000001;"/></g><!--MD5=[da0cfb34630bc9251ef7cfbbba846f7e]
link ArchUnitNET.Domain.Extensions to ArchUnitNET.Domain.Dependencies--><g id="link_ArchUnitNET.Domain.Extensions_ArchUnitNET.Domain.Dependencies"><path d="M506.052,289.936 C497.624,295.588 486.532,303.032 477.044,309.396 " fill="none" id="ArchUnitNET.Domain.Extensions-to-ArchUnitNET.Domain.Dependencies" style="stroke:#181818;stroke-width:0.4000000000000001;"/><polygon fill="none" points="478.532,311.772,470.328,313.904,475.412,307.12,478.532,311.772" style="stroke:#181818;stroke-width:0.4000000000000001;"/></g><!--MD5=[300d8f9a26d02626c097cc57aa2a06e2]
@startuml
package ArchUnitNET {
package Loader {
[LoadTasks] as ArchUnitNET.Loader.LoadTasks
}
}

package ArchUnitNET {
package Fluent {
package Syntax {
package Elements {
[Types] as ArchUnitNET.Fluent.Syntax.Elements.Types
}
}
}
}

package ArchUnitNET {
package Fluent {
package Syntax {
package Elements {
[Members] as ArchUnitNET.Fluent.Syntax.Elements.Members
}
}
}
}

package ArchUnitNET {
package Fluent {
[Slices] as ArchUnitNET.Fluent.Slices
}
}

package ArchUnitNET {
package Fluent {
[Predicates] as ArchUnitNET.Fluent.Predicates
}
}

package ArchUnitNET {
package Fluent {
[PlantUml] as ArchUnitNET.Fluent.PlantUml
}
}

package ArchUnitNET {
package Fluent {
[Freeze] as ArchUnitNET.Fluent.Freeze
}
}

package ArchUnitNET {
package Fluent {
[Extensions] as ArchUnitNET.Fluent.Extensions
}
}

package ArchUnitNET {
package Fluent {
[Exceptions] as ArchUnitNET.Fluent.Exceptions
}
}

package ArchUnitNET {
package Fluent {
[Conditions] as ArchUnitNET.Fluent.Conditions
}
}

package ArchUnitNET {
package Domain {
package PlantUml {
[Import] as ArchUnitNET.Domain.PlantUml.Import
}
}
}

package ArchUnitNET {
package Domain {
package PlantUml {
[Export] as ArchUnitNET.Domain.PlantUml.Export
}
}
}

package ArchUnitNET {
package Domain {
package PlantUml {
[Exceptions] as ArchUnitNET.Domain.PlantUml.Exceptions
}
}
}

package ArchUnitNET {
package Domain {
[Extensions] as ArchUnitNET.Domain.Extensions
}
}

package ArchUnitNET {
package Domain {
[Exceptions] as ArchUnitNET.Domain.Exceptions
}
}

package ArchUnitNET {
package Domain {
[Dependencies] as ArchUnitNET.Domain.Dependencies
}
}

Loader -[#blue]> [ArchUnitNET.Domain.Exceptions]
[ArchUnitNET.Loader.LoadTasks] - -|> [ArchUnitNET.Domain.Extensions]
[ArchUnitNET.Loader.LoadTasks] - -|> [ArchUnitNET.Domain.Dependencies]
Elements -[#blue]> [ArchUnitNET.Fluent.Exceptions]
[ArchUnitNET.Fluent.Syntax.Elements.Types] - -|> [ArchUnitNET.Fluent.Predicates]
[ArchUnitNET.Fluent.Syntax.Elements.Types] - -|> [ArchUnitNET.Fluent.Conditions]
[ArchUnitNET.Fluent.Syntax.Elements.Types] - -|> [ArchUnitNET.Domain.PlantUml.Import]
[ArchUnitNET.Fluent.Syntax.Elements.Types] - -|> [ArchUnitNET.Domain.Extensions]
[ArchUnitNET.Fluent.Syntax.Elements.Types] - -|> [ArchUnitNET.Domain.Exceptions]
[ArchUnitNET.Fluent.Syntax.Elements.Types] - -|> [ArchUnitNET.Domain.Dependencies]
[ArchUnitNET.Fluent.Syntax.Elements.Members] - -|> [ArchUnitNET.Fluent.Syntax.Elements.Types]
[ArchUnitNET.Fluent.Syntax.Elements.Members] - -|> [ArchUnitNET.Fluent.Predicates]
[ArchUnitNET.Fluent.Syntax.Elements.Members] - -|> [ArchUnitNET.Fluent.Conditions]
[ArchUnitNET.Fluent.Syntax.Elements.Members] - -|> [ArchUnitNET.Domain.Extensions]
[ArchUnitNET.Fluent.Syntax.Elements.Members] - -|> [ArchUnitNET.Domain.Exceptions]
[ArchUnitNET.Fluent.Slices] - -|> [ArchUnitNET.Domain.Dependencies]
[ArchUnitNET.Fluent.Predicates] -[#red]> Domain
[ArchUnitNET.Fluent.PlantUml] - -|> [ArchUnitNET.Domain.PlantUml.Export]
[ArchUnitNET.Fluent.Freeze] - -|> [ArchUnitNET.Domain.Exceptions]
[ArchUnitNET.Fluent.Extensions] - -|> [ArchUnitNET.Domain.Extensions]
[ArchUnitNET.Fluent.Conditions] - -|> [ArchUnitNET.Fluent.Predicates]
[ArchUnitNET.Fluent.Conditions] -[#red]> Domain
[ArchUnitNET.Domain.PlantUml.Import] - -|> [ArchUnitNET.Domain.PlantUml.Exceptions]
[ArchUnitNET.Domain.PlantUml.Import] - -|> [ArchUnitNET.Domain.Extensions]
[ArchUnitNET.Domain.PlantUml.Export] - -|> [ArchUnitNET.Domain.PlantUml.Exceptions]
[ArchUnitNET.Domain.PlantUml.Export] - -|> [ArchUnitNET.Domain.Extensions]
[ArchUnitNET.Domain.PlantUml.Export] - -|> [ArchUnitNET.Domain.Dependencies]
[ArchUnitNET.Domain.Extensions] - -|> [ArchUnitNET.Domain.Exceptions]
[ArchUnitNET.Domain.Extensions] - -|> [ArchUnitNET.Domain.Dependencies]
@enduml

PlantUML version 1.2022.7(Mon Aug 22 19:01:30 CEST 2022)
(GPL source distribution)
Java Runtime: OpenJDK Runtime Environment
JVM: OpenJDK 64-Bit Server VM
Default Encoding: Cp1252
Language: en
Country: US
--></g></svg>