<?xml version="1.0" encoding="UTF-8" standalone="no"?><svg xmlns="http://www.w3.org/2000/svg" xmlns:xlink="http://www.w3.org/1999/xlink" contentStyleType="text/css" height="286px" preserveAspectRatio="none" style="width:608px;height:286px;background:#FFFFFF;" version="1.1" viewBox="0 0 608 286" width="608.4px" zoomAndPan="magnify"><defs/><g><!--MD5=[35f9dfedec39fd2e10e8a13c47ee5789]
cluster ArchUnitNET--><g id="cluster_ArchUnitNET"><path d="M3.4,2.4 L38.6,2.4 A1.5,1.5 0 0 1 39.6,3.4 L42.4,11.0563 L604.6,11.0563 A1,1 0 0 1 605.6,12.0563 L605.6,282.2 A1,1 0 0 1 604.6,283.2 L3.4,283.2 A1,1 0 0 1 2.4,282.2 L2.4,3.4 A1,1 0 0 1 3.4,2.4 " fill="none" style="stroke:#000000;stroke-width:0.6000000000000001;"/><line style="stroke:#000000;stroke-width:0.6000000000000001;" x1="2.4" x2="42.4" y1="11.0563" y2="11.0563"/><text fill="#000000" font-family="sans-serif" font-size="5.6" font-weight="bold" lengthAdjust="spacing" textLength="34.8" x="4" y="8.2695">ArchUnitNET</text></g><!--MD5=[f504221dae15b154bc64fdfab34a1f62]
cluster Loader--><g id="cluster_Loader"><path d="M340.6,62.4 L360.6,62.4 A1.5,1.5 0 0 1 361.6,63.4 L364.4,71.0563 L409.4,71.0563 A1,1 0 0 1 410.4,72.0563 L410.4,106.2 A1,1 0 0 1 409.4,107.2 L340.6,107.2 A1,1 0 0 1 339.6,106.2 L339.6,63.4 A1,1 0 0 1 340.6,62.4 " fill="none" style="stroke:#000000;stroke-width:0.6000000000000001;"/><line style="stroke:#000000;stroke-width:0.6000000000000001;" x1="339.6" x2="364.4" y1="71.0563" y2="71.0563"/><text fill="#000000" font-family="sans-serif" font-size="5.6" font-weight="bold" lengthAdjust="spacing" textLength="19.6" x="341.2" y="68.2695">Loader</text></g><!--MD5=[50d838338a8efd04032f85b32421b4d7]
cluster Fluent--><g id="cluster_Fluent"><path d="M16.2,22.4 L34.6,22.4 A1.5,1.5 0 0 1 35.6,23.4 L38.4,31.0563 L322.6,31.0563 A1,1 0 0 1 323.6,32.0563 L323.6,215.8 A1,1 0 0 1 322.6,216.8 L16.2,216.8 A1,1 0 0 1 15.2,215.8 L15.2,23.4 A1,1 0 0 1 16.2,22.4 " fill="none" style="stroke:#000000;stroke-width:0.6000000000000001;"/><line style="stroke:#000000;stroke-width:0.6000000000000001;" x1="15.2" x2="38.4" y1="31.0563" y2="31.0563"/><text fill="#000000" font-family="sans-serif" font-size="5.6" font-weight="bold" lengthAdjust="spacing" textLength="18" x="16.8" y="28.2695">Fluent</text></g><!--MD5=[94a2dc2ec9d8697b335698bdbfeb78e7]
cluster Syntax--><g id="cluster_Syntax"><path d="M224.6,45.6 L243.4,45.6 A1.5,1.5 0 0 1 244.4,46.6 L247.2,54.2563 L303.4,54.2563 A1,1 0 0 1 304.4,55.2563 L304.4,199.8 A1,1 0 0 1 303.4,200.8 L224.6,200.8 A1,1 0 0 1 223.6,199.8 L223.6,46.6 A1,1 0 0 1 224.6,45.6 " fill="none" style="stroke:#000000;stroke-width:0.6000000000000001;"/><line style="stroke:#000000;stroke-width:0.6000000000000001;" x1="223.6" x2="247.2" y1="54.2563" y2="54.2563"/><text fill="#000000" font-family="sans-serif" font-size="5.6" font-weight="bold" lengthAdjust="spacing" textLength="18.4" x="225.2" y="51.4695">Syntax</text></g><!--MD5=[edd80f3a113af5f4be8f509ed439bef6]
cluster Elements--><g id="cluster_Elements"><path d="M240.6,65.6 L267,65.6 A1.5,1.5 0 0 1 268,66.6 L270.8,74.2563 L290.6,74.2563 A1,1 0 0 1 291.6,75.2563 L291.6,187 A1,1 0 0 1 290.6,188 L240.6,188 A1,1 0 0 1 239.6,187 L239.6,66.6 A1,1 0 0 1 240.6,65.6 " fill="none" style="stroke:#000000;stroke-width:0.6000000000000001;"/><line style="stroke:#000000;stroke-width:0.6000000000000001;" x1="239.6" x2="270.8" y1="74.2563" y2="74.2563"/><text fill="#000000" font-family="sans-serif" font-size="5.6" font-weight="bold" lengthAdjust="spacing" textLength="26" x="241.2" y="71.4695">Elements</text></g><!--MD5=[121a8bf1197281ab89ed693fab589f94]
cluster Domain--><g id="cluster_Domain"><path d="M340.6,123.2 L361.8,123.2 A1.5,1.5 0 0 1 362.8,124.2 L365.6,131.8563 L591.8,131.8563 A1,1 0 0 1 592.8,132.8563 L592.8,269.4 A1,1 0 0 1 591.8,270.4 L340.6,270.4 A1,1 0 0 1 339.6,269.4 L339.6,124.2 A1,1 0 0 1 340.6,123.2 " fill="none" style="stroke:#000000;stroke-width:0.6000000000000001;"/><line style="stroke:#000000;stroke-width:0.6000000000000001;" x1="339.6" x2="365.6" y1="131.8563" y2="131.8563"/><text fill="#000000" font-family="sans-serif" font-size="5.6" font-weight="bold" lengthAdjust="spacing" textLength="20.8" x="341.2" y="129.0695">Domain</text></g><!--MD5=[124c38f5faf6c2e32fb9828e081ccfbf]
cluster PlantUml--><g id="cluster_PlantUml"><path d="M473,146.4 L497.8,146.4 A1.5,1.5 0 0 1 498.8,147.4 L501.6,155.0563 L575.8,155.0563 A1,1 0 0 1 576.8,156.0563 L576.8,253.4 A1,1 0 0 1 575.8,254.4 L473,254.4 A1,1 0 0 1 472,253.4 L472,147.4 A1,1 0 0 1 473,146.4 " fill="none" style="stroke:#000000;stroke-width:0.6000000000000001;"/><line style="stroke:#000000;stroke-width:0.6000000000000001;" x1="472" x2="501.6" y1="155.0563" y2="155.0563"/><text fill="#000000" font-family="sans-serif" font-size="5.6" font-weight="bold" lengthAdjust="spacing" textLength="24.4" x="473.6" y="152.2695">PlantUml</text></g><!--MD5=[1c9ca8f26a4da55518a0e849e052c70c]
entity ArchUnitNET.Loader.LoadTasks--><g id="elem_ArchUnitNET.Loader.LoadTasks"><rect fill="#F1F1F1" height="18.2563" rx="1" ry="1" style="stroke:#181818;stroke-width:0.20000000000000004;" width="44" x="356.8" y="79.2"/><rect fill="#F1F1F1" height="4" style="stroke:#181818;stroke-width:0.20000000000000004;" width="6" x="392.8" y="81.2"/><rect fill="#F1F1F1" height="0.8" style="stroke:#181818;stroke-width:0.20000000000000004;" width="1.6" x="392" y="82"/><rect fill="#F1F1F1" height="0.8" style="stroke:#181818;stroke-width:0.20000000000000004;" width="1.6" x="392" y="83.6"/><text fill="#000000" font-family="sans-serif" font-size="5.6" lengthAdjust="spacing" textLength="28" x="362.8" y="92.2695">LoadTasks</text></g><!--MD5=[502ee4525bc8590c0b3025b59206ac5b]
entity ArchUnitNET.Fluent.Slices--><g id="elem_ArchUnitNET.Fluent.Slices"><rect fill="#F1F1F1" height="18.2563" rx="1" ry="1" style="stroke:#181818;stroke-width:0.20000000000000004;" width="30.8" x="25" y="79.2"/><rect fill="#F1F1F1" height="4" style="stroke:#181818;stroke-width:0.20000000000000004;" width="6" x="47.8" y="81.2"/><rect fill="#F1F1F1" height="0.8" style="stroke:#181818;stroke-width:0.20000000000000004;" width="1.6" x="47" y="82"/><rect fill="#F1F1F1" height="0.8" style="stroke:#181818;stroke-width:0.20000000000000004;" width="1.6" x="47" y="83.6"/><text fill="#000000" font-family="sans-serif" font-size="5.6" lengthAdjust="spacing" textLength="14.8" x="31" y="92.2695">Slices</text></g><!--MD5=[1c44b256fb10fd47b89b46620d1d1f24]
entity ArchUnitNET.Fluent.Predicates--><g id="elem_ArchUnitNET.Fluent.Predicates"><rect fill="#F1F1F1" height="18.2563" rx="1" ry="1" style="stroke:#181818;stroke-width:0.20000000000000004;" width="42.8" x="170.2" y="163.2"/><rect fill="#F1F1F1" height="4" style="stroke:#181818;stroke-width:0.20000000000000004;" width="6" x="205" y="165.2"/><rect fill="#F1F1F1" height="0.8" style="stroke:#181818;stroke-width:0.20000000000000004;" width="1.6" x="204.2" y="166"/><rect fill="#F1F1F1" height="0.8" style="stroke:#181818;stroke-width:0.20000000000000004;" width="1.6" x="204.2" y="167.6"/><text fill="#000000" font-family="sans-serif" font-size="5.6" lengthAdjust="spacing" textLength="26.8" x="176.2" y="176.2695">Predicates</text></g><!--MD5=[dc15977a09b42d1e128dc4eb6141bcd2]
entity ArchUnitNET.Fluent.PlantUml--><g id="elem_ArchUnitNET.Fluent.PlantUml"><rect fill="#F1F1F1" height="18.2563" rx="1" ry="1" style="stroke:#181818;stroke-width:0.20000000000000004;" width="38" x="69.8" y="79.2"/><rect fill="#F1F1F1" height="4" style="stroke:#181818;stroke-width:0.20000000000000004;" width="6" x="99.8" y="81.2"/><rect fill="#F1F1F1" height="0.8" style="stroke:#181818;stroke-width:0.20000000000000004;" width="1.6" x="99" y="82"/><rect fill="#F1F1F1" height="0.8" style="stroke:#181818;stroke-width:0.20000000000000004;" width="1.6" x="99" y="83.6"/><text fill="#000000" font-family="sans-serif" font-size="5.6" lengthAdjust="spacing" textLength="22" x="75.8" y="92.2695">PlantUml</text></g><!--MD5=[2a29295b13477a201d03d9465890fca0]
entity ArchUnitNET.Fluent.Freeze--><g id="elem_ArchUnitNET.Fluent.Freeze"><rect fill="#F1F1F1" height="18.2563" rx="1" ry="1" style="stroke:#181818;stroke-width:0.20000000000000004;" width="33.6" x="122" y="79.2"/><rect fill="#F1F1F1" height="4" style="stroke:#181818;stroke-width:0.20000000000000004;" width="6" x="147.6" y="81.2"/><rect fill="#F1F1F1" height="0.8" style="stroke:#181818;stroke-width:0.20000000000000004;" width="1.6" x="146.8" y="82"/><rect fill="#F1F1F1" height="0.8" style="stroke:#181818;stroke-width:0.20000000000000004;" width="1.6" x="146.8" y="83.6"/><text fill="#000000" font-family="sans-serif" font-size="5.6" lengthAdjust="spacing" textLength="17.6" x="128" y="92.2695">Freeze</text></g><!--MD5=[82fbb12b020fc7aa4d6912daca5c0beb]
entity ArchUnitNET.Fluent.Extensions--><g id="elem_ArchUnitNET.Fluent.Extensions"><rect fill="#F1F1F1" height="18.2563" rx="1" ry="1" style="stroke:#181818;stroke-width:0.20000000000000004;" width="43.2" x="24.8" y="163.2"/><rect fill="#F1F1F1" height="4" style="stroke:#181818;stroke-width:0.20000000000000004;" width="6" x="60" y="165.2"/><rect fill="#F1F1F1" height="0.8" style="stroke:#181818;stroke-width:0.20000000000000004;" width="1.6" x="59.2" y="166"/><rect fill="#F1F1F1" height="0.8" style="stroke:#181818;stroke-width:0.20000000000000004;" width="1.6" x="59.2" y="167.6"/><text fill="#000000" font-family="sans-serif" font-size="5.6" lengthAdjust="spacing" textLength="27.2" x="30.8" y="176.2695">Extensions</text></g><!--MD5=[f2d02300251a951b350ed54409c2549b]
entity ArchUnitNET.Fluent.Exceptions--><g id="elem_ArchUnitNET.Fluent.Exceptions"><rect fill="#F1F1F1" height="18.2563" rx="1" ry="1" style="stroke:#181818;stroke-width:0.20000000000000004;" width="43.2" x="82" y="163.2"/><rect fill="#F1F1F1" height="4" style="stroke:#181818;stroke-width:0.20000000000000004;" width="6" x="117.2" y="165.2"/><rect fill="#F1F1F1" height="0.8" style="stroke:#181818;stroke-width:0.20000000000000004;" width="1.6" x="116.4" y="166"/><rect fill="#F1F1F1" height="0.8" style="stroke:#181818;stroke-width:0.20000000000000004;" width="1.6" x="116.4" y="167.6"/><text fill="#000000" font-family="sans-serif" font-size="5.6" lengthAdjust="spacing" textLength="27.2" x="88" y="176.2695">Exceptions</text></g><!--MD5=[0920d5a70fa9b0c1b5b5731d18349e65]
entity ArchUnitNET.Fluent.Conditions--><g id="elem_ArchUnitNET.Fluent.Conditions"><rect fill="#F1F1F1" height="18.2563" rx="1" ry="1" style="stroke:#181818;stroke-width:0.20000000000000004;" width="42.8" x="169.8" y="79.2"/><rect fill="#F1F1F1" height="4" style="stroke:#181818;stroke-width:0.20000000000000004;" width="6" x="204.6" y="81.2"/><rect fill="#F1F1F1" height="0.8" style="stroke:#181818;stroke-width:0.20000000000000004;" width="1.6" x="203.8" y="82"/><rect fill="#F1F1F1" height="0.8" style="stroke:#181818;stroke-width:0.20000000000000004;" width="1.6" x="203.8" y="83.6"/><text fill="#000000" font-family="sans-serif" font-size="5.6" lengthAdjust="spacing" textLength="26.8" x="175.8" y="92.2695">Conditions</text></g><!--MD5=[cca2a172eccfe3841aac1c82be541515]
entity ArchUnitNET.Fluent.Syntax.Elements.Types--><g id="elem_ArchUnitNET.Fluent.Syntax.Elements.Types"><rect fill="#F1F1F1" height="18.2563" rx="1" ry="1" style="stroke:#181818;stroke-width:0.20000000000000004;" width="31.6" x="249.8" y="163.2"/><rect fill="#F1F1F1" height="4" style="stroke:#181818;stroke-width:0.20000000000000004;" width="6" x="273.4" y="165.2"/><rect fill="#F1F1F1" height="0.8" style="stroke:#181818;stroke-width:0.20000000000000004;" width="1.6" x="272.6" y="166"/><rect fill="#F1F1F1" height="0.8" style="stroke:#181818;stroke-width:0.20000000000000004;" width="1.6" x="272.6" y="167.6"/><text fill="#000000" font-family="sans-serif" font-size="5.6" lengthAdjust="spacing" textLength="15.6" x="255.8" y="176.2695">Types</text></g><!--MD5=[39e99beaf4d957e2a6cc97c2e565cc9c]
entity ArchUnitNET.Fluent.Syntax.Elements.Members--><g id="elem_ArchUnitNET.Fluent.Syntax.Elements.Members"><rect fill="#F1F1F1" height="18.2563" rx="1" ry="1" style="stroke:#181818;stroke-width:0.20000000000000004;" width="39.2" x="246" y="79.2"/><rect fill="#F1F1F1" height="4" style="stroke:#181818;stroke-width:0.20000000000000004;" width="6" x="277.2" y="81.2"/><rect fill="#F1F1F1" height="0.8" style="stroke:#181818;stroke-width:0.20000000000000004;" width="1.6" x="276.4" y="82"/><rect fill="#F1F1F1" height="0.8" style="stroke:#181818;stroke-width:0.20000000000000004;" width="1.6" x="276.4" y="83.6"/><text fill="#000000" font-family="sans-serif" font-size="5.6" lengthAdjust="spacing" textLength="23.2" x="252" y="92.2695">Members</text></g><!--MD5=[012dc235bb2353d05d86e17789058605]
entity ArchUnitNET.Domain.Extensions--><g id="elem_ArchUnitNET.Domain.Extensions"><rect fill="#F1F1F1" height="18.2563" rx="1" ry="1" style="stroke:#181818;stroke-width:0.20000000000000004;" width="43.2" x="414.4" y="163.2"/><rect fill="#F1F1F1" height="4" style="stroke:#181818;stroke-width:0.20000000000000004;" width="6" x="449.6" y="165.2"/><rect fill="#F1F1F1" height="0.8" style="stroke:#181818;stroke-width:0.20000000000000004;" width="1.6" x="448.8" y="166"/><rect fill="#F1F1F1" height="0.8" style="stroke:#181818;stroke-width:0.20000000000000004;" width="1.6" x="448.8" y="167.6"/><text fill="#000000" font-family="sans-serif" font-size="5.6" lengthAdjust="spacing" textLength="27.2" x="420.4" y="176.2695">Extensions</text></g><!--MD5=[577007689b33d32a9979b6b47512ebbb]
entity ArchUnitNET.Domain.Exceptions--><g id="elem_ArchUnitNET.Domain.Exceptions"><rect fill="#F1F1F1" height="18.2563" rx="1" ry="1" style="stroke:#181818;stroke-width:0.20000000000000004;" width="43.2" x="352.4" y="226.4"/><rect fill="#F1F1F1" height="4" style="stroke:#181818;stroke-width:0.20000000000000004;" width="6" x="387.6" y="228.4"/><rect fill="#F1F1F1" height="0.8" style="stroke:#181818;stroke-width:0.20000000000000004;" width="1.6" x="386.8" y="229.2"/><rect fill="#F1F1F1" height="0.8" style="stroke:#181818;stroke-width:0.20000000000000004;" width="1.6" x="386.8" y="230.8"/><text fill="#000000" font-family="sans-serif" font-size="5.6" lengthAdjust="spacing" textLength="27.2" x="358.4" y="239.4695">Exceptions</text></g><!--MD5=[331e1cc4ba5d828a21346b659bfbbe72]
entity ArchUnitNET.Domain.Dependencies--><g id="elem_ArchUnitNET.Domain.Dependencies"><rect fill="#F1F1F1" height="18.2563" rx="1" ry="1" style="stroke:#181818;stroke-width:0.20000000000000004;" width="52.4" x="409.8" y="226.4"/><rect fill="#F1F1F1" height="4" style="stroke:#181818;stroke-width:0.20000000000000004;" width="6" x="454.2" y="228.4"/><rect fill="#F1F1F1" height="0.8" style="stroke:#181818;stroke-width:0.20000000000000004;" width="1.6" x="453.4" y="229.2"/><rect fill="#F1F1F1" height="0.8" style="stroke:#181818;stroke-width:0.20000000000000004;" width="1.6" x="453.4" y="230.8"/><text fill="#000000" font-family="sans-serif" font-size="5.6" lengthAdjust="spacing" textLength="36.4" x="415.8" y="239.4695">Dependencies</text></g><!--MD5=[e5ae0ac6ad56daf11d73811f245a4c51]
entity ArchUnitNET.Domain.PlantUml.Import--><g id="elem_ArchUnitNET.Domain.PlantUml.Import"><rect fill="#F1F1F1" height="18.2563" rx="1" ry="1" style="stroke:#181818;stroke-width:0.20000000000000004;" width="31.6" x="535.4" y="163.2"/><rect fill="#F1F1F1" height="4" style="stroke:#181818;stroke-width:0.20000000000000004;" width="6" x="559" y="165.2"/><rect fill="#F1F1F1" height="0.8" style="stroke:#181818;stroke-width:0.20000000000000004;" width="1.6" x="558.2" y="166"/><rect fill="#F1F1F1" height="0.8" style="stroke:#181818;stroke-width:0.20000000000000004;" width="1.6" x="558.2" y="167.6"/><text fill="#000000" font-family="sans-serif" font-size="5.6" lengthAdjust="spacing" textLength="15.6" x="541.4" y="176.2695">Import</text></g><!--MD5=[43e6274b1a3fe0323fe04a7bdfecfd1e]
entity ArchUnitNET.Domain.PlantUml.Export--><g id="elem_ArchUnitNET.Domain.PlantUml.Export"><rect fill="#F1F1F1" height="18.2563" rx="1" ry="1" style="stroke:#181818;stroke-width:0.20000000000000004;" width="32" x="489.2" y="163.2"/><rect fill="#F1F1F1" height="4" style="stroke:#181818;stroke-width:0.20000000000000004;" width="6" x="513.2" y="165.2"/><rect fill="#F1F1F1" height="0.8" style="stroke:#181818;stroke-width:0.20000000000000004;" width="1.6" x="512.4" y="166"/><rect fill="#F1F1F1" height="0.8" style="stroke:#181818;stroke-width:0.20000000000000004;" width="1.6" x="512.4" y="167.6"/><text fill="#000000" font-family="sans-serif" font-size="5.6" lengthAdjust="spacing" textLength="16" x="495.2" y="176.2695">Export</text></g><!--MD5=[72e82cf5caf8888f15e82f4c78e5dc24]
entity ArchUnitNET.Domain.PlantUml.Exceptions--><g id="elem_ArchUnitNET.Domain.PlantUml.Exceptions"><rect fill="#F1F1F1" height="18.2563" rx="1" ry="1" style="stroke:#181818;stroke-width:0.20000000000000004;" width="43.2" x="506.4" y="226.4"/><rect fill="#F1F1F1" height="4" style="stroke:#181818;stroke-width:0.20000000000000004;" width="6" x="541.6" y="228.4"/><rect fill="#F1F1F1" height="0.8" style="stroke:#181818;stroke-width:0.20000000000000004;" width="1.6" x="540.8" y="229.2"/><rect fill="#F1F1F1" height="0.8" style="stroke:#181818;stroke-width:0.20000000000000004;" width="1.6" x="540.8" y="230.8"/><text fill="#000000" font-family="sans-serif" font-size="5.6" lengthAdjust="spacing" textLength="27.2" x="512.4" y="239.4695">Exceptions</text></g><!--MD5=[ec80444725e169e82fa3595d4ef57f62]
link Loader to Domain--><g id="link_Loader_Domain"><path d="M342.8,107.5182 C342.8,107.6522 342.8,107.7867 342.8,107.9216 C342.8,108.1915 342.8,108.4631 342.8,108.7365 C342.8,110.9237 342.8,113.2217 342.8,115.5935 C342.8,117.9654 342.8,120.411 342.8,122.8936 C342.8,122.9712 342.8,123.0488 342.8,123.1265 C342.8,123.1459 342.8,123.1653 342.8,123.1847 " fill="none" id="Loader-to-Domain" style="stroke:#181818;stroke-width:0.4000000000000001;stroke-dasharray:7.0,7.0;"/><polygon fill="#181818" points="342.8,123.1847,344.4,119.5847,342.8,121.1847,341.2,119.5847,342.8,123.1847" style="stroke:#181818;stroke-width:0.4000000000000001;"/></g><!--MD5=[6140b6c36ae54de3154d48b7dc90be06]
link Fluent to Domain--><g id="link_Fluent_Domain"><path d="M323.6257,100.7807 C323.6565,100.8953 323.6876,101.0104 323.7187,101.1262 C323.8434,101.5893 323.9707,102.0622 324.1006,102.5444 C326.1776,110.2588 328.8913,120.3375 331.6045,130.415 C334.3178,140.4925 337.0306,150.5688 339.1062,158.2781 C339.2359,158.76 339.3631,159.2326 339.4877,159.6953 C339.5189,159.811 339.5499,159.9261 339.5807,160.0405 " fill="none" id="Fluent-to-Domain" style="stroke:#181818;stroke-width:0.4000000000000001;stroke-dasharray:7.0,7.0;"/><polygon fill="#181818" points="339.5807,160.0405,340.1898,156.1484,339.0607,158.1093,337.0998,156.9803,339.5807,160.0405" style="stroke:#181818;stroke-width:0.4000000000000001;"/></g><!--MD5=[96b3feedcacdb3a613db18146681da10]
link Syntax to ArchUnitNET.Fluent.Predicates--><g id="link_Syntax_ArchUnitNET.Fluent.Predicates"><path d="M223.5802,118.4747 C223.5547,118.5453 223.5291,118.6159 223.5034,118.6865 C223.2978,119.2516 223.0868,119.8163 222.8708,120.3805 C222.0067,122.6373 221.0617,124.8857 220.0559,127.1106 C218.0443,131.5605 215.7895,135.9165 213.453,140.058 C208.78,148.341 203.78,155.766 199.744,161.368 " fill="none" id="Syntax-to-ArchUnitNET.Fluent.Predicates" style="stroke:#181818;stroke-width:0.4000000000000001;"/><polygon fill="#181818" points="198.48,163.1,201.8922,161.1311,199.657,161.483,199.3051,159.2478,198.48,163.1" style="stroke:#181818;stroke-width:0.4000000000000001;"/></g><!--MD5=[034cbcb8ac007229bace5f0bc7eba576]
link Syntax to ArchUnitNET.Fluent.Conditions--><g id="link_Syntax_ArchUnitNET.Fluent.Conditions"><path d="M223.5605,88.4 C223.5451,88.4 223.5296,88.4 223.5141,88.4 C223.4831,88.4 223.4522,88.4 223.4212,88.4 C223.3593,88.4 223.2973,88.4 223.2354,88.4 C223.1115,88.4 222.9876,88.4 222.8638,88.4 C222.616,88.4 222.3683,88.4 222.1205,88.4 C221.625,88.4 221.1295,88.4 220.634,88.4 C218.652,88.4 216.67,88.4 214.688,88.4 " fill="none" id="Syntax-to-ArchUnitNET.Fluent.Conditions" style="stroke:#181818;stroke-width:0.4000000000000001;"/><polygon fill="#181818" points="212.616,88.4,216.216,90,214.616,88.4,216.216,86.8,212.616,88.4" style="stroke:#181818;stroke-width:0.4000000000000001;"/></g><!--MD5=[38a43cfa3318bb90b8bf590eebb0e536]
link ArchUnitNET.Fluent.Syntax.Elements.Members to ArchUnitNET.Fluent.Syntax.Elements.Types--><g id="link_ArchUnitNET.Fluent.Syntax.Elements.Members_ArchUnitNET.Fluent.Syntax.Elements.Types"><path d="M265.6,97.704 C265.6,111.372 265.6,137.76 265.6,155.128 " fill="none" id="ArchUnitNET.Fluent.Syntax.Elements.Members-to-ArchUnitNET.Fluent.Syntax.Elements.Types" style="stroke:#181818;stroke-width:0.4000000000000001;"/><polygon fill="none" points="268.4,155.16,265.6,163.16,262.8,155.16,268.4,155.16" style="stroke:#181818;stroke-width:0.4000000000000001;"/></g><!--MD5=[8e10e0cae93a58ab20ced124c4597375]
link ArchUnitNET.Fluent.Conditions to ArchUnitNET.Fluent.Predicates--><g id="link_ArchUnitNET.Fluent.Conditions_ArchUnitNET.Fluent.Predicates"><path d="M191.244,97.704 C191.308,111.372 191.436,137.76 191.52,155.128 " fill="none" id="ArchUnitNET.Fluent.Conditions-to-ArchUnitNET.Fluent.Predicates" style="stroke:#181818;stroke-width:0.4000000000000001;"/><polygon fill="none" points="194.32,155.148,191.556,163.16,188.72,155.172,194.32,155.148" style="stroke:#181818;stroke-width:0.4000000000000001;"/></g><!--MD5=[416eefd4cd41b8b522c78e95a6352f25]
link ArchUnitNET.Domain.PlantUml.Import to ArchUnitNET.Domain.PlantUml.Exceptions--><g id="link_ArchUnitNET.Domain.PlantUml.Import_ArchUnitNET.Domain.PlantUml.Exceptions"><path d="M547.924,181.608 C544.344,191.244 538.52,206.9 534.092,218.812 " fill="none" id="ArchUnitNET.Domain.PlantUml.Import-to-ArchUnitNET.Domain.PlantUml.Exceptions" style="stroke:#181818;stroke-width:0.4000000000000001;"/><polygon fill="none" points="536.708,219.812,531.296,226.336,531.46,217.86,536.708,219.812" style="stroke:#181818;stroke-width:0.4000000000000001;"/></g><!--MD5=[684f3f97ce584ea93859d7a0426dd4ea]
link PlantUml to ArchUnitNET.Domain.Extensions--><g id="link_PlantUml_ArchUnitNET.Domain.Extensions"><path d="M471.9655,172.4 C471.926,172.4 471.8865,172.4 471.847,172.4 C471.768,172.4 471.689,172.4 471.61,172.4 C471.452,172.4 471.2939,172.4 471.1359,172.4 C469.8719,172.4 468.6078,172.4 467.3435,172.4 C464.815,172.4 462.286,172.4 459.756,172.4 " fill="none" id="PlantUml-to-ArchUnitNET.Domain.Extensions" style="stroke:#181818;stroke-width:0.4000000000000001;"/><polygon fill="#181818" points="457.744,172.4,461.344,174,459.744,172.4,461.344,170.8,457.744,172.4" style="stroke:#181818;stroke-width:0.4000000000000001;"/></g><!--MD5=[0e2fb85b74981f664c8875bbf9942a31]
link ArchUnitNET.Domain.PlantUml.Export to ArchUnitNET.Domain.PlantUml.Exceptions--><g id="link_ArchUnitNET.Domain.PlantUml.Export_ArchUnitNET.Domain.PlantUml.Exceptions"><path d="M508.42,181.608 C511.94,191.244 517.66,206.9 522.012,218.812 " fill="none" id="ArchUnitNET.Domain.PlantUml.Export-to-ArchUnitNET.Domain.PlantUml.Exceptions" style="stroke:#181818;stroke-width:0.4000000000000001;"/><polygon fill="none" points="524.644,217.86,524.76,226.336,519.384,219.784,524.644,217.86" style="stroke:#181818;stroke-width:0.4000000000000001;"/></g><!--MD5=[96a85af2f387f5bcb1e031967bca6873]
link PlantUml to ArchUnitNET.Domain.Dependencies--><g id="link_PlantUml_ArchUnitNET.Domain.Dependencies"><path d="M471.9855,225.0888 C471.9747,225.1 471.9639,225.1113 471.9531,225.1225 C471.9314,225.1449 471.9098,225.1672 471.888,225.1895 C471.8011,225.2787 471.7135,225.3671 471.6251,225.4548 C470.9183,226.1561 470.1655,226.8083 469.375,227.4145 C467.794,228.627 466.062,229.656 464.244,230.528 " fill="none" id="PlantUml-to-ArchUnitNET.Domain.Dependencies" style="stroke:#181818;stroke-width:0.4000000000000001;"/><polygon fill="#181818" points="462.316,231.384,466.2555,231.3863,464.1441,230.5728,464.9576,228.4613,462.316,231.384" style="stroke:#181818;stroke-width:0.4000000000000001;"/></g><!--MD5=[ae9ed8db9c5097acf6ac176032976ba7]
link ArchUnitNET.Domain.Extensions to ArchUnitNET.Domain.Exceptions--><g id="link_ArchUnitNET.Domain.Extensions_ArchUnitNET.Domain.Exceptions"><path d="M434.216,181.796 C431.52,193.06 425.332,212.216 412.8,223.2 C412.664,223.32 408.664,224.584 403.28,226.252 " fill="none" id="ArchUnitNET.Domain.Extensions-to-ArchUnitNET.Domain.Exceptions" style="stroke:#181818;stroke-width:0.4000000000000001;"/><polygon fill="none" points="404.08,228.936,395.612,228.612,402.432,223.584,404.08,228.936" style="stroke:#181818;stroke-width:0.4000000000000001;"/></g><!--MD5=[da0cfb34630bc9251ef7cfbbba846f7e]
link ArchUnitNET.Domain.Extensions to ArchUnitNET.Domain.Dependencies--><g id="link_ArchUnitNET.Domain.Extensions_ArchUnitNET.Domain.Dependencies"><path d="M436,181.608 C436,191.104 436,206.452 436,218.292 " fill="none" id="ArchUnitNET.Domain.Extensions-to-ArchUnitNET.Domain.Dependencies" style="stroke:#181818;stroke-width:0.4000000000000001;"/><polygon fill="none" points="438.8,218.336,436,226.336,433.2,218.336,438.8,218.336" style="stroke:#181818;stroke-width:0.4000000000000001;"/></g><!--MD5=[0aaac06fad78fbcc637cc2b8f724ec13]
@startuml
package ArchUnitNET {
package Loader {
[LoadTasks] as ArchUnitNET.Loader.LoadTasks
}
}

package ArchUnitNET {
package Fluent {
package Syntax {
package Elements {
[Types] as ArchUnitNET.Fluent.Syntax.Elements.Types
}
}
}
}

package ArchUnitNET {
package Fluent {
package Syntax {
package Elements {
[Members] as ArchUnitNET.Fluent.Syntax.Elements.Members
}
}
}
}

package ArchUnitNET {
package Fluent {
[Slices] as ArchUnitNET.Fluent.Slices
}
}

package ArchUnitNET {
package Fluent {
[Predicates] as ArchUnitNET.Fluent.Predicates
}
}

package ArchUnitNET {
package Fluent {
[PlantUml] as ArchUnitNET.Fluent.PlantUml
}
}

package ArchUnitNET {
package Fluent {
[Freeze] as ArchUnitNET.Fluent.Freeze
}
}

package ArchUnitNET {
package Fluent {
[Extensions] as ArchUnitNET.Fluent.Extensions
}
}

package ArchUnitNET {
package Fluent {
[Exceptions] as ArchUnitNET.Fluent.Exceptions
}
}

package ArchUnitNET {
package Fluent {
[Conditions] as ArchUnitNET.Fluent.Conditions
}
}

package ArchUnitNET {
package Domain {
package PlantUml {
[Import] as ArchUnitNET.Domain.PlantUml.Import
}
}
}

package ArchUnitNET {
package Domain {
package PlantUml {
[Export] as ArchUnitNET.Domain.PlantUml.Export
}
}
}

package ArchUnitNET {
package Domain {
package PlantUml {
[Exceptions] as ArchUnitNET.Domain.PlantUml.Exceptions
}
}
}

package ArchUnitNET {
package Domain {
[Extensions] as ArchUnitNET.Domain.Extensions
}
}

package ArchUnitNET {
package Domain {
[Exceptions] as ArchUnitNET.Domain.Exceptions
}
}

package ArchUnitNET {
package Domain {
[Dependencies] as ArchUnitNET.Domain.Dependencies
}
}

Loader ..> Domain
Fluent ..> Domain
Syntax -> ArchUnitNET.Fluent.Predicates
Syntax -> ArchUnitNET.Fluent.Conditions
ArchUnitNET.Fluent.Syntax.Elements.Members - -|> ArchUnitNET.Fluent.Syntax.Elements.Types
ArchUnitNET.Fluent.Conditions - -|> ArchUnitNET.Fluent.Predicates
ArchUnitNET.Domain.PlantUml.Import - -|> ArchUnitNET.Domain.PlantUml.Exceptions
PlantUml -> ArchUnitNET.Domain.Extensions
ArchUnitNET.Domain.PlantUml.Export - -|> ArchUnitNET.Domain.PlantUml.Exceptions
PlantUml -> ArchUnitNET.Domain.Dependencies
ArchUnitNET.Domain.Extensions - -|> ArchUnitNET.Domain.Exceptions
ArchUnitNET.Domain.Extensions - -|> ArchUnitNET.Domain.Dependencies
@enduml

PlantUML version 1.2022.7(Mon Aug 22 19:01:30 CEST 2022)
(GPL source distribution)
Java Runtime: OpenJDK Runtime Environment
JVM: OpenJDK 64-Bit Server VM
Default Encoding: Cp1252
Language: en
Country: US
--></g></svg>