<?xml version="1.0" encoding="UTF-8" standalone="no"?><svg xmlns="http://www.w3.org/2000/svg" xmlns:xlink="http://www.w3.org/1999/xlink" contentStyleType="text/css" height="364.2px" preserveAspectRatio="none" style="width:625px;height:364px;background:#FFFFFF;" version="1.1" viewBox="0 0 625 364" width="625.2px" zoomAndPan="magnify"><defs/><g><!--MD5=[35f9dfedec39fd2e10e8a13c47ee5789]
cluster ArchUnitNET--><g id="cluster_ArchUnitNET"><path d="M5.1,3.6 L57.9,3.6 A2.25,2.25 0 0 1 59.4,5.1 L63.6,16.5844 L619.5,16.5844 A1.5,1.5 0 0 1 621,18.0844 L621,358.5 A1.5,1.5 0 0 1 619.5,360 L5.1,360 A1.5,1.5 0 0 1 3.6,358.5 L3.6,5.1 A1.5,1.5 0 0 1 5.1,3.6 " fill="none" style="stroke:#000000;stroke-width:0.8999999999999999;"/><line style="stroke:#000000;stroke-width:0.8999999999999999;" x1="3.6" x2="63.6" y1="16.5844" y2="16.5844"/><text fill="#000000" font-family="sans-serif" font-size="8.4" font-weight="bold" lengthAdjust="spacing" textLength="52.2" x="6" y="12.4043">ArchUnitNET</text></g><!--MD5=[50d838338a8efd04032f85b32421b4d7]
cluster Fluent--><g id="cluster_Fluent"><path d="M19.5,28.8 L47.1,28.8 A2.25,2.25 0 0 1 48.6,30.3 L52.8,41.7844 L252.3,41.7844 A1.5,1.5 0 0 1 253.8,43.2844 L253.8,329.7 A1.5,1.5 0 0 1 252.3,331.2 L19.5,331.2 A1.5,1.5 0 0 1 18,329.7 L18,30.3 A1.5,1.5 0 0 1 19.5,28.8 " fill="none" style="stroke:#000000;stroke-width:0.8999999999999999;"/><line style="stroke:#000000;stroke-width:0.8999999999999999;" x1="18" x2="52.8" y1="41.7844" y2="41.7844"/><text fill="#000000" font-family="sans-serif" font-size="8.4" font-weight="bold" lengthAdjust="spacing" textLength="27" x="20.4" y="37.6043">Fluent</text></g><!--MD5=[94a2dc2ec9d8697b335698bdbfeb78e7]
cluster Syntax--><g id="cluster_Syntax"><path d="M103.5,54 L131.7,54 A2.25,2.25 0 0 1 133.2,55.5 L137.4,66.9844 L237.9,66.9844 A1.5,1.5 0 0 1 239.4,68.4844 L239.4,232.5 A1.5,1.5 0 0 1 237.9,234 L103.5,234 A1.5,1.5 0 0 1 102,232.5 L102,55.5 A1.5,1.5 0 0 1 103.5,54 " fill="none" style="stroke:#000000;stroke-width:0.8999999999999999;"/><line style="stroke:#000000;stroke-width:0.8999999999999999;" x1="102" x2="137.4" y1="66.9844" y2="66.9844"/><text fill="#000000" font-family="sans-serif" font-size="8.4" font-weight="bold" lengthAdjust="spacing" textLength="27.6" x="104.4" y="62.8043">Syntax</text></g><!--MD5=[edd80f3a113af5f4be8f509ed439bef6]
cluster Elements--><g id="cluster_Elements"><path d="M122.7,84 L162.3,84 A2.25,2.25 0 0 1 163.8,85.5 L168,96.9844 L218.7,96.9844 A1.5,1.5 0 0 1 220.2,98.4844 L220.2,213.3 A1.5,1.5 0 0 1 218.7,214.8 L122.7,214.8 A1.5,1.5 0 0 1 121.2,213.3 L121.2,85.5 A1.5,1.5 0 0 1 122.7,84 " fill="#99FFD1" style="stroke:#000000;stroke-width:0.8999999999999999;"/><line style="stroke:#000000;stroke-width:0.8999999999999999;" x1="121.2" x2="168" y1="96.9844" y2="96.9844"/><text fill="#000000" font-family="sans-serif" font-size="8.4" font-weight="bold" lengthAdjust="spacing" textLength="39" x="123.6" y="92.8043">Elements</text></g><!--MD5=[121a8bf1197281ab89ed693fab589f94]
cluster Domain--><g id="cluster_Domain"><path d="M269.7,248.4 L301.5,248.4 A2.25,2.25 0 0 1 303,249.9 L307.2,261.3844 L605.1,261.3844 A1.5,1.5 0 0 1 606.6,262.8844 L606.6,344.1 A1.5,1.5 0 0 1 605.1,345.6 L269.7,345.6 A1.5,1.5 0 0 1 268.2,344.1 L268.2,249.9 A1.5,1.5 0 0 1 269.7,248.4 " fill="none" style="stroke:#000000;stroke-width:0.8999999999999999;"/><line style="stroke:#000000;stroke-width:0.8999999999999999;" x1="268.2" x2="307.2" y1="261.3844" y2="261.3844"/><text fill="#000000" font-family="sans-serif" font-size="8.4" font-weight="bold" lengthAdjust="spacing" textLength="31.2" x="270.6" y="257.2043">Domain</text></g><!--MD5=[124c38f5faf6c2e32fb9828e081ccfbf]
cluster PlantUml--><g id="cluster_PlantUml"><path d="M369.3,273.6 L406.5,273.6 A2.25,2.25 0 0 1 408,275.1 L412.2,286.5844 L433.5,286.5844 A1.5,1.5 0 0 1 435,288.0844 L435,329.7 A1.5,1.5 0 0 1 433.5,331.2 L369.3,331.2 A1.5,1.5 0 0 1 367.8,329.7 L367.8,275.1 A1.5,1.5 0 0 1 369.3,273.6 " fill="none" style="stroke:#000000;stroke-width:0.8999999999999999;"/><line style="stroke:#000000;stroke-width:0.8999999999999999;" x1="367.8" x2="412.2" y1="286.5844" y2="286.5844"/><text fill="#000000" font-family="sans-serif" font-size="8.4" font-weight="bold" lengthAdjust="spacing" textLength="36.6" x="370.2" y="282.4043">PlantUml</text></g><!--MD5=[1c44b256fb10fd47b89b46620d1d1f24]
entity ArchUnitNET.Fluent.Predicates--><g id="elem_ArchUnitNET.Fluent.Predicates"><rect fill="#F1F1F1" height="27.3844" rx="1.5" ry="1.5" style="stroke:#181818;stroke-width:0.3;" width="64.2" x="72.9" y="294"/><rect fill="#F1F1F1" height="6" style="stroke:#181818;stroke-width:0.3;" width="9" x="125.1" y="297"/><rect fill="#F1F1F1" height="1.2" style="stroke:#181818;stroke-width:0.3;" width="2.4" x="123.9" y="298.2"/><rect fill="#F1F1F1" height="1.2" style="stroke:#181818;stroke-width:0.3;" width="2.4" x="123.9" y="300.6"/><text fill="#000000" font-family="sans-serif" font-size="8.4" lengthAdjust="spacing" textLength="40.2" x="81.9" y="313.6043">Predicates</text></g><!--MD5=[f2d02300251a951b350ed54409c2549b]
entity ArchUnitNET.Fluent.Exceptions--><g id="elem_ArchUnitNET.Fluent.Exceptions"><rect fill="#F1F1F1" height="27.3844" rx="1.5" ry="1.5" style="stroke:#181818;stroke-width:0.3;" width="64.8" x="27.6" y="109.2"/><rect fill="#F1F1F1" height="6" style="stroke:#181818;stroke-width:0.3;" width="9" x="80.4" y="112.2"/><rect fill="#F1F1F1" height="1.2" style="stroke:#181818;stroke-width:0.3;" width="2.4" x="79.2" y="113.4"/><rect fill="#F1F1F1" height="1.2" style="stroke:#181818;stroke-width:0.3;" width="2.4" x="79.2" y="115.8"/><text fill="#000000" font-family="sans-serif" font-size="8.4" lengthAdjust="spacing" textLength="40.8" x="36.6" y="128.8043">Exceptions</text></g><!--MD5=[0920d5a70fa9b0c1b5b5731d18349e65]
entity ArchUnitNET.Fluent.Conditions--><g id="elem_ArchUnitNET.Fluent.Conditions"><rect fill="#F1F1F1" height="27.3844" rx="1.5" ry="1.5" style="stroke:#181818;stroke-width:0.3;" width="64.2" x="158.1" y="294"/><rect fill="#F1F1F1" height="6" style="stroke:#181818;stroke-width:0.3;" width="9" x="210.3" y="297"/><rect fill="#F1F1F1" height="1.2" style="stroke:#181818;stroke-width:0.3;" width="2.4" x="209.1" y="298.2"/><rect fill="#F1F1F1" height="1.2" style="stroke:#181818;stroke-width:0.3;" width="2.4" x="209.1" y="300.6"/><text fill="#000000" font-family="sans-serif" font-size="8.4" lengthAdjust="spacing" textLength="40.2" x="167.1" y="313.6043">Conditions</text></g><!--MD5=[cca2a172eccfe3841aac1c82be541515]
entity ArchUnitNET.Fluent.Syntax.Elements.Types--><g id="elem_ArchUnitNET.Fluent.Syntax.Elements.Types"><rect fill="#99FFD1" height="27.3844" rx="1.5" ry="1.5" style="stroke:#181818;stroke-width:0.3;" width="47.4" x="158.1" y="172.8"/><rect fill="#99FFD1" height="6" style="stroke:#181818;stroke-width:0.3;" width="9" x="193.5" y="175.8"/><rect fill="#99FFD1" height="1.2" style="stroke:#181818;stroke-width:0.3;" width="2.4" x="192.3" y="177"/><rect fill="#99FFD1" height="1.2" style="stroke:#181818;stroke-width:0.3;" width="2.4" x="192.3" y="179.4"/><text fill="#000000" font-family="sans-serif" font-size="8.4" lengthAdjust="spacing" textLength="23.4" x="167.1" y="192.4043">Types</text></g><!--MD5=[39e99beaf4d957e2a6cc97c2e565cc9c]
entity ArchUnitNET.Fluent.Syntax.Elements.Members--><g id="elem_ArchUnitNET.Fluent.Syntax.Elements.Members"><rect fill="#99FFD1" height="27.3844" rx="1.5" ry="1.5" style="stroke:#181818;stroke-width:0.3;" width="58.8" x="147" y="109.2"/><rect fill="#99FFD1" height="6" style="stroke:#181818;stroke-width:0.3;" width="9" x="193.8" y="112.2"/><rect fill="#99FFD1" height="1.2" style="stroke:#181818;stroke-width:0.3;" width="2.4" x="192.6" y="113.4"/><rect fill="#99FFD1" height="1.2" style="stroke:#181818;stroke-width:0.3;" width="2.4" x="192.6" y="115.8"/><text fill="#000000" font-family="sans-serif" font-size="8.4" lengthAdjust="spacing" textLength="34.8" x="156" y="128.8043">Members</text></g><!--MD5=[012dc235bb2353d05d86e17789058605]
entity ArchUnitNET.Domain.Extensions--><g id="elem_ArchUnitNET.Domain.Extensions"><rect fill="#F1F1F1" height="27.3844" rx="1.5" ry="1.5" style="stroke:#181818;stroke-width:0.3;" width="64.8" x="446.4" y="294"/><rect fill="#F1F1F1" height="6" style="stroke:#181818;stroke-width:0.3;" width="9" x="499.2" y="297"/><rect fill="#F1F1F1" height="1.2" style="stroke:#181818;stroke-width:0.3;" width="2.4" x="498" y="298.2"/><rect fill="#F1F1F1" height="1.2" style="stroke:#181818;stroke-width:0.3;" width="2.4" x="498" y="300.6"/><text fill="#000000" font-family="sans-serif" font-size="8.4" lengthAdjust="spacing" textLength="40.8" x="455.4" y="313.6043">Extensions</text></g><!--MD5=[577007689b33d32a9979b6b47512ebbb]
entity ArchUnitNET.Domain.Exceptions--><g id="elem_ArchUnitNET.Domain.Exceptions"><rect fill="#F1F1F1" height="27.3844" rx="1.5" ry="1.5" style="stroke:#181818;stroke-width:0.3;" width="64.8" x="532.2" y="294"/><rect fill="#F1F1F1" height="6" style="stroke:#181818;stroke-width:0.3;" width="9" x="585" y="297"/><rect fill="#F1F1F1" height="1.2" style="stroke:#181818;stroke-width:0.3;" width="2.4" x="583.8" y="298.2"/><rect fill="#F1F1F1" height="1.2" style="stroke:#181818;stroke-width:0.3;" width="2.4" x="583.8" y="300.6"/><text fill="#000000" font-family="sans-serif" font-size="8.4" lengthAdjust="spacing" textLength="40.8" x="541.2" y="313.6043">Exceptions</text></g><!--MD5=[331e1cc4ba5d828a21346b659bfbbe72]
entity ArchUnitNET.Domain.Dependencies--><g id="elem_ArchUnitNET.Domain.Dependencies"><rect fill="#F1F1F1" height="27.3844" rx="1.5" ry="1.5" style="stroke:#181818;stroke-width:0.3;" width="78.6" x="278.1" y="294"/><rect fill="#F1F1F1" height="6" style="stroke:#181818;stroke-width:0.3;" width="9" x="344.7" y="297"/><rect fill="#F1F1F1" height="1.2" style="stroke:#181818;stroke-width:0.3;" width="2.4" x="343.5" y="298.2"/><rect fill="#F1F1F1" height="1.2" style="stroke:#181818;stroke-width:0.3;" width="2.4" x="343.5" y="300.6"/><text fill="#000000" font-family="sans-serif" font-size="8.4" lengthAdjust="spacing" textLength="54.6" x="287.1" y="313.6043">Dependencies</text></g><!--MD5=[e5ae0ac6ad56daf11d73811f245a4c51]
entity ArchUnitNET.Domain.PlantUml.Import--><g id="elem_ArchUnitNET.Domain.PlantUml.Import"><rect fill="#F1F1F1" height="27.3844" rx="1.5" ry="1.5" style="stroke:#181818;stroke-width:0.3;" width="47.4" x="377.7" y="294"/><rect fill="#F1F1F1" height="6" style="stroke:#181818;stroke-width:0.3;" width="9" x="413.1" y="297"/><rect fill="#F1F1F1" height="1.2" style="stroke:#181818;stroke-width:0.3;" width="2.4" x="411.9" y="298.2"/><rect fill="#F1F1F1" height="1.2" style="stroke:#181818;stroke-width:0.3;" width="2.4" x="411.9" y="300.6"/><text fill="#000000" font-family="sans-serif" font-size="8.4" lengthAdjust="spacing" textLength="23.4" x="386.7" y="313.6043">Import</text></g><!--MD5=[4e0451935fda39e538a1fff258e615c5]
link Elements to ArchUnitNET.Fluent.Exceptions--><g id="link_Elements_ArchUnitNET.Fluent.Exceptions"><path d="M121.1456,123 C121.1063,123 121.0671,123 121.0279,123 C120.714,123 120.4001,123 120.0863,123 C119.4585,123 118.8307,123 118.203,123 C115.692,123 113.181,123 110.67,123 C105.648,123 100.626,123 95.604,123 " fill="none" id="Elements-to-ArchUnitNET.Fluent.Exceptions" style="stroke:#0000FF;stroke-width:0.6;"/><polygon fill="#0000FF" points="92.484,123,97.884,125.4,95.484,123,97.884,120.6,92.484,123" style="stroke:#0000FF;stroke-width:0.6;"/></g><!--MD5=[fe26a4b5d83e50fe9b28c196508e7a44]
link ArchUnitNET.Fluent.Syntax.Elements.Types to ArchUnitNET.Fluent.Predicates--><g id="link_ArchUnitNET.Fluent.Syntax.Elements.Types_ArchUnitNET.Fluent.Predicates"><path d="M177.324,200.49 C173.046,211.692 165.714,227.64 155.4,238.8 C152.64,241.788 150.534,240.78 147.6,243.6 C135.66,255.09 125.25,270.468 117.708,283.23 " fill="none" id="ArchUnitNET.Fluent.Syntax.Elements.Types-to-ArchUnitNET.Fluent.Predicates" style="stroke:#181818;stroke-width:0.6;"/><polygon fill="none" points="121.29,285.42,111.738,293.808,113.976,281.292,121.29,285.42" style="stroke:#181818;stroke-width:0.6;"/></g><!--MD5=[69b02b33482c3fb88bc8b6bda201c9f1]
link ArchUnitNET.Fluent.Syntax.Elements.Types to ArchUnitNET.Fluent.Conditions--><g id="link_ArchUnitNET.Fluent.Syntax.Elements.Types_ArchUnitNET.Fluent.Conditions"><path d="M182.73,200.502 C184.098,220.056 186.678,256.92 188.418,281.772 " fill="none" id="ArchUnitNET.Fluent.Syntax.Elements.Types-to-ArchUnitNET.Fluent.Conditions" style="stroke:#181818;stroke-width:0.6;"/><polygon fill="none" points="192.618,281.574,189.264,293.838,184.236,282.162,192.618,281.574" style="stroke:#181818;stroke-width:0.6;"/></g><!--MD5=[7920149c72afcfc5f09c8e26fbf95864]
link ArchUnitNET.Fluent.Syntax.Elements.Types to ArchUnitNET.Domain.PlantUml.Import--><g id="link_ArchUnitNET.Fluent.Syntax.Elements.Types_ArchUnitNET.Domain.PlantUml.Import"><path d="M205.656,195.738 C237.588,206.91 296.154,226.512 347.4,238.8 C359.766,241.764 365.688,235.638 375.6,243.6 C387.282,252.99 393.714,268.512 397.236,281.868 " fill="none" id="ArchUnitNET.Fluent.Syntax.Elements.Types-to-ArchUnitNET.Domain.PlantUml.Import" style="stroke:#181818;stroke-width:0.6;"/><polygon fill="none" points="401.37,281.124,399.792,293.742,393.156,282.894,401.37,281.124" style="stroke:#181818;stroke-width:0.6;"/></g><!--MD5=[17bb57096cd61f983266931cdd335718]
link ArchUnitNET.Fluent.Syntax.Elements.Types to ArchUnitNET.Domain.Extensions--><g id="link_ArchUnitNET.Fluent.Syntax.Elements.Types_ArchUnitNET.Domain.Extensions"><path d="M205.74,196.722 C237.528,208.89 295.686,229.476 347.4,238.8 C356.994,240.528 426.498,238.83 435,243.6 C450.438,252.258 461.604,268.902 468.792,282.996 " fill="none" id="ArchUnitNET.Fluent.Syntax.Elements.Types-to-ArchUnitNET.Domain.Extensions" style="stroke:#181818;stroke-width:0.6;"/><polygon fill="none" points="472.662,281.346,473.91,294,465.042,284.886,472.662,281.346" style="stroke:#181818;stroke-width:0.6;"/></g><!--MD5=[7076db8274d6faad35c8bb37223eb62d]
link ArchUnitNET.Fluent.Syntax.Elements.Types to ArchUnitNET.Domain.Exceptions--><g id="link_ArchUnitNET.Fluent.Syntax.Elements.Types_ArchUnitNET.Domain.Exceptions"><path d="M205.68,192.378 C254.196,202.71 367.866,225.996 464.4,238.8 C477.132,240.486 510.93,237.084 522,243.6 C536.958,252.402 547.74,268.776 554.718,282.702 " fill="none" id="ArchUnitNET.Fluent.Syntax.Elements.Types-to-ArchUnitNET.Domain.Exceptions" style="stroke:#181818;stroke-width:0.6;"/><polygon fill="none" points="558.636,281.172,559.782,293.832,550.986,284.652,558.636,281.172" style="stroke:#181818;stroke-width:0.6;"/></g><!--MD5=[0dff810c6dc6413d47e63dcb952dde0c]
link ArchUnitNET.Fluent.Syntax.Elements.Types to ArchUnitNET.Domain.Dependencies--><g id="link_ArchUnitNET.Fluent.Syntax.Elements.Types_ArchUnitNET.Domain.Dependencies"><path d="M200.04,200.526 C214.896,211.602 236.208,228.018 253.8,243.6 C268.68,256.782 284.496,272.586 296.628,285.138 " fill="none" id="ArchUnitNET.Fluent.Syntax.Elements.Types-to-ArchUnitNET.Domain.Dependencies" style="stroke:#181818;stroke-width:0.6;"/><polygon fill="none" points="299.67,282.246,304.932,293.82,293.598,288.054,299.67,282.246" style="stroke:#181818;stroke-width:0.6;"/></g><!--MD5=[38a43cfa3318bb90b8bf590eebb0e536]
link ArchUnitNET.Fluent.Syntax.Elements.Members to ArchUnitNET.Fluent.Syntax.Elements.Types--><g id="link_ArchUnitNET.Fluent.Syntax.Elements.Members_ArchUnitNET.Fluent.Syntax.Elements.Types"><path d="M177.546,136.836 C178.146,143.784 178.902,152.538 179.61,160.722 " fill="none" id="ArchUnitNET.Fluent.Syntax.Elements.Members-to-ArchUnitNET.Fluent.Syntax.Elements.Types" style="stroke:#181818;stroke-width:0.6;"/><polygon fill="none" points="183.804,160.47,180.654,172.788,175.44,161.19,183.804,160.47" style="stroke:#181818;stroke-width:0.6;"/></g><!--MD5=[e961df608ff0b77e6353c4d1b4a2ab7d]
link ArchUnitNET.Fluent.Syntax.Elements.Members to ArchUnitNET.Fluent.Predicates--><g id="link_ArchUnitNET.Fluent.Syntax.Elements.Members_ArchUnitNET.Fluent.Predicates"><path d="M163.194,136.908 C154.65,146.232 143.94,159.378 137.4,172.8 C120.012,208.482 111.57,254.148 107.772,282.012 " fill="none" id="ArchUnitNET.Fluent.Syntax.Elements.Members-to-ArchUnitNET.Fluent.Predicates" style="stroke:#181818;stroke-width:0.6;"/><polygon fill="none" points="111.93,282.582,106.278,293.97,103.596,281.538,111.93,282.582" style="stroke:#181818;stroke-width:0.6;"/></g><!--MD5=[9f4a25f35d320924fe652de30b02fd7a]
link ArchUnitNET.Fluent.Syntax.Elements.Members to ArchUnitNET.Fluent.Conditions--><g id="link_ArchUnitNET.Fluent.Syntax.Elements.Members_ArchUnitNET.Fluent.Conditions"><path d="M165.96,136.92 C159.264,146.352 151.176,159.618 147.6,172.8 C139.926,201.108 139.536,210.594 147.6,238.8 C152.316,255.3 162.294,271.686 171.408,284.286 " fill="none" id="ArchUnitNET.Fluent.Syntax.Elements.Members-to-ArchUnitNET.Fluent.Conditions" style="stroke:#181818;stroke-width:0.6;"/><polygon fill="none" points="174.798,281.808,178.722,293.898,168.114,286.896,174.798,281.808" style="stroke:#181818;stroke-width:0.6;"/></g><!--MD5=[730b7dd35adac50e38857e6a433fa38b]
link ArchUnitNET.Fluent.Syntax.Elements.Members to ArchUnitNET.Domain.Extensions--><g id="link_ArchUnitNET.Fluent.Syntax.Elements.Members_ArchUnitNET.Domain.Extensions"><path d="M205.986,131.676 C257.196,146.802 363.708,183.42 435,243.6 C447.996,254.568 458.868,270.282 466.524,283.344 " fill="none" id="ArchUnitNET.Fluent.Syntax.Elements.Members-to-ArchUnitNET.Domain.Extensions" style="stroke:#181818;stroke-width:0.6;"/><polygon fill="none" points="470.262,281.424,472.404,293.958,462.918,285.498,470.262,281.424" style="stroke:#181818;stroke-width:0.6;"/></g><!--MD5=[9220f6283fd448dbbb902bc7abc7d6f9]
link ArchUnitNET.Fluent.Syntax.Elements.Members to ArchUnitNET.Domain.Exceptions--><g id="link_ArchUnitNET.Fluent.Syntax.Elements.Members_ArchUnitNET.Domain.Exceptions"><path d="M205.83,126.33 C270.57,133.782 427.11,159.87 522,243.6 C534.498,254.628 544.98,270.12 552.414,283.05 " fill="none" id="ArchUnitNET.Fluent.Syntax.Elements.Members-to-ArchUnitNET.Domain.Exceptions" style="stroke:#181818;stroke-width:0.6;"/><polygon fill="none" points="556.212,281.244,558.252,293.79,548.832,285.252,556.212,281.244" style="stroke:#181818;stroke-width:0.6;"/></g><!--MD5=[7e0ffc035f0a0455315d255cd8ca242e]
@startuml
package ArchUnitNET {
package Fluent {
package Syntax {
package Elements {
[Types] as ArchUnitNET.Fluent.Syntax.Elements.Types #99ffd1
}
}
}
}

package ArchUnitNET {
package Fluent {
package Syntax {
package Elements {
[Members] as ArchUnitNET.Fluent.Syntax.Elements.Members #99ffd1
}
}
}
}

package ArchUnitNET {
package Fluent {
[Predicates] as ArchUnitNET.Fluent.Predicates
}
}

package ArchUnitNET {
package Fluent {
[Exceptions] as ArchUnitNET.Fluent.Exceptions
}
}

package ArchUnitNET {
package Fluent {
[Conditions] as ArchUnitNET.Fluent.Conditions
}
}

package ArchUnitNET {
package Domain {
package PlantUml {
[Import] as ArchUnitNET.Domain.PlantUml.Import
}
}
}

package ArchUnitNET {
package Domain {
[Extensions] as ArchUnitNET.Domain.Extensions
}
}

package ArchUnitNET {
package Domain {
[Exceptions] as ArchUnitNET.Domain.Exceptions
}
}

package ArchUnitNET {
package Domain {
[Dependencies] as ArchUnitNET.Domain.Dependencies
}
}

package ArchUnitNET {
package Fluent {
package Syntax {
package Elements #99ffd1 {
}
}
}
}

Elements -[#blue]> [ArchUnitNET.Fluent.Exceptions]
[ArchUnitNET.Fluent.Syntax.Elements.Types] - -|> [ArchUnitNET.Fluent.Predicates]
[ArchUnitNET.Fluent.Syntax.Elements.Types] - -|> [ArchUnitNET.Fluent.Conditions]
[ArchUnitNET.Fluent.Syntax.Elements.Types] - -|> [ArchUnitNET.Domain.PlantUml.Import]
[ArchUnitNET.Fluent.Syntax.Elements.Types] - -|> [ArchUnitNET.Domain.Extensions]
[ArchUnitNET.Fluent.Syntax.Elements.Types] - -|> [ArchUnitNET.Domain.Exceptions]
[ArchUnitNET.Fluent.Syntax.Elements.Types] - -|> [ArchUnitNET.Domain.Dependencies]
[ArchUnitNET.Fluent.Syntax.Elements.Members] - -|> [ArchUnitNET.Fluent.Syntax.Elements.Types]
[ArchUnitNET.Fluent.Syntax.Elements.Members] - -|> [ArchUnitNET.Fluent.Predicates]
[ArchUnitNET.Fluent.Syntax.Elements.Members] - -|> [ArchUnitNET.Fluent.Conditions]
[ArchUnitNET.Fluent.Syntax.Elements.Members] - -|> [ArchUnitNET.Domain.Extensions]
[ArchUnitNET.Fluent.Syntax.Elements.Members] - -|> [ArchUnitNET.Domain.Exceptions]
@enduml

PlantUML version 1.2022.7(Mon Aug 22 19:01:30 CEST 2022)
(GPL source distribution)
Java Runtime: OpenJDK Runtime Environment
JVM: OpenJDK 64-Bit Server VM
Default Encoding: Cp1252
Language: en
Country: US
--></g></svg>